<svg xmlns="http://www.w3.org/2000/svg" xmlns:xlink="http://www.w3.org/1999/xlink" width="1100" zoomAndPan="magnify" viewBox="0 0 824.88 599.999999" height="800" preserveAspectRatio="xMidYMid meet" version="1.0"><defs><clipPath id="a30beda571"><path d="M 0 0.0429688 L 824.761719 0.0429688 L 824.761719 599.957031 L 0 599.957031 Z M 0 0.0429688 " clip-rule="nonzero"/></clipPath><clipPath id="7bc7750fc5"><path d="M 0 0.0429688 L 824.761719 0.0429688 L 824.761719 599.957031 L 0 599.957031 Z M 0 0.0429688 " clip-rule="nonzero"/></clipPath><clipPath id="c516d387e2"><rect x="0" width="825" y="0" height="600"/></clipPath><clipPath id="8e1269f5f7"><path d="M 0 265.71875 L 287.957031 265.71875 L 287.957031 481.6875 L 0 481.6875 Z M 0 265.71875 " clip-rule="nonzero"/></clipPath><clipPath id="978d68086f"><path d="M 281.3125 265.71875 L 569.269531 265.71875 L 569.269531 481.6875 L 281.3125 481.6875 Z M 281.3125 265.71875 " clip-rule="nonzero"/></clipPath><clipPath id="fa93143ef3"><path d="M 536.65625 265.71875 L 824.613281 265.71875 L 824.613281 481.6875 L 536.65625 481.6875 Z M 536.65625 265.71875 " clip-rule="nonzero"/></clipPath></defs><g clip-path="url(#a30beda571)"><path fill="#ffffff" d="M 0 0.0429688 L 824.878906 0.0429688 L 824.878906 599.957031 L 0 599.957031 Z M 0 0.0429688 " fill-opacity="1" fill-rule="nonzero"/><path fill="#ffffff" d="M 0 0.0429688 L 824.878906 0.0429688 L 824.878906 599.957031 L 0 599.957031 Z M 0 0.0429688 " fill-opacity="1" fill-rule="nonzero"/><g transform="matrix(1, 0, 0, 1, 0, -0.000000000000171793)"><g clip-path="url(#c516d387e2)"><g clip-path="url(#7bc7750fc5)"><path fill="#f884b1" d="M 0 0.0429688 L 824.878906 0.0429688 L 824.878906 599.957031 L 0 599.957031 Z M 0 0.0429688 " fill-opacity="1" fill-rule="nonzero"/></g></g></g></g><g clip-path="url(#8e1269f5f7)"><path fill="#cb3471" d="M 140.84375 481.640625 L 120.667969 481.613281 L 87.375 371.996094 L 73.742188 396.640625 L 64.511719 402.085938 L 0.242188 402.085938 L 0.242188 380.992188 L 58.292969 380.992188 L 80.992188 339.960938 L 100.3125 342 L 130.804688 442.410156 L 184.945312 265.835938 L 205.089844 265.765625 L 241.328125 380.992188 L 287.972656 380.992188 L 287.972656 402.085938 L 233.589844 402.085938 L 223.53125 394.703125 L 195.15625 304.492188 Z M 140.84375 481.640625 " fill-opacity="1" fill-rule="nonzero"/></g><g clip-path="url(#978d68086f)"><path fill="#cb3471" d="M 422.15625 481.640625 L 401.980469 481.613281 L 368.6875 371.996094 L 355.054688 396.640625 L 345.824219 402.085938 L 281.554688 402.085938 L 281.554688 380.992188 L 339.605469 380.992188 L 362.304688 339.960938 L 381.625 342 L 412.117188 442.410156 L 466.257812 265.835938 L 486.402344 265.765625 L 522.640625 380.992188 L 569.285156 380.992188 L 569.285156 402.085938 L 514.902344 402.085938 L 504.839844 394.703125 L 476.46875 304.492188 Z M 422.15625 481.640625 " fill-opacity="1" fill-rule="nonzero"/></g><g clip-path="url(#fa93143ef3)"><path fill="#cb3471" d="M 677.496094 481.640625 L 657.324219 481.613281 L 624.03125 371.996094 L 610.394531 396.640625 L 601.167969 402.085938 L 536.898438 402.085938 L 536.898438 380.992188 L 594.949219 380.992188 L 617.644531 339.960938 L 636.964844 342 L 667.460938 442.410156 L 721.601562 265.835938 L 741.746094 265.765625 L 777.984375 380.992188 L 824.628906 380.992188 L 824.628906 402.085938 L 770.246094 402.085938 L 760.183594 394.703125 L 731.8125 304.492188 Z M 677.496094 481.640625 " fill-opacity="1" fill-rule="nonzero"/></g></svg>
