<svg xmlns="http://www.w3.org/2000/svg" xmlns:xlink="http://www.w3.org/1999/xlink" width="1100" zoomAndPan="magnify" viewBox="0 0 824.88 599.999999" height="800" preserveAspectRatio="xMidYMid meet" version="1.0"><defs><clipPath id="b420a08878"><path d="M 0 0.0429688 L 824.761719 0.0429688 L 824.761719 599.957031 L 0 599.957031 Z M 0 0.0429688 " clip-rule="nonzero"/></clipPath><clipPath id="b1e3987bd9"><path d="M 0 0.0429688 L 824.761719 0.0429688 L 824.761719 599.957031 L 0 599.957031 Z M 0 0.0429688 " clip-rule="nonzero"/></clipPath><clipPath id="99040e2d59"><rect x="0" width="825" y="0" height="600"/></clipPath><clipPath id="3cd13dd82e"><path d="M 176.402344 174.863281 L 426.867188 174.863281 L 426.867188 425.328125 L 176.402344 425.328125 Z M 176.402344 174.863281 " clip-rule="nonzero"/></clipPath><clipPath id="58814e7174"><path d="M 82.214844 80.675781 L 520.902344 80.675781 L 520.902344 519.359375 L 82.214844 519.359375 Z M 82.214844 80.675781 " clip-rule="nonzero"/></clipPath><clipPath id="1f45064bb9"><path d="M 462.535156 80.675781 L 549.523438 80.675781 L 549.523438 167.660156 L 462.535156 167.660156 Z M 462.535156 80.675781 " clip-rule="nonzero"/></clipPath></defs><g clip-path="url(#b420a08878)"><path fill="#ffffff" d="M 0 0.0429688 L 824.878906 0.0429688 L 824.878906 599.957031 L 0 599.957031 Z M 0 0.0429688 " fill-opacity="1" fill-rule="nonzero"/><path fill="#ffffff" d="M 0 0.0429688 L 824.878906 0.0429688 L 824.878906 599.957031 L 0 599.957031 Z M 0 0.0429688 " fill-opacity="1" fill-rule="nonzero"/><g transform="matrix(1, 0, 0, 1, 0, -0.000000000000171793)"><g clip-path="url(#99040e2d59)"><g clip-path="url(#b1e3987bd9)"><path fill="#f59033" d="M 0 0.0429688 L 824.878906 0.0429688 L 824.878906 599.957031 L 0 599.957031 Z M 0 0.0429688 " fill-opacity="1" fill-rule="nonzero"/></g></g></g></g><g clip-path="url(#3cd13dd82e)"><path fill="#cc650b" d="M 301.535156 354.53125 C 271.414062 354.53125 246.996094 330.117188 246.996094 299.996094 C 246.996094 269.875 271.414062 245.457031 301.535156 245.457031 C 331.65625 245.457031 356.074219 269.875 356.074219 299.996094 C 356.074219 330.117188 331.65625 354.53125 301.535156 354.53125 Z M 426.671875 273.09375 C 423.378906 257.699219 417.316406 243.332031 409.03125 230.535156 L 382.742188 238.597656 L 362.933594 218.789062 L 370.996094 192.496094 C 358.199219 184.214844 343.832031 178.148438 328.4375 174.859375 L 315.542969 199.15625 L 287.527344 199.15625 L 274.632812 174.859375 C 259.238281 178.148438 244.871094 184.214844 232.074219 192.496094 L 240.136719 218.789062 L 220.328125 238.597656 L 194.035156 230.535156 C 185.753906 243.332031 179.691406 257.699219 176.394531 273.09375 L 200.695312 285.988281 L 200.695312 314 L 176.394531 326.898438 C 179.691406 342.292969 185.753906 356.660156 194.035156 369.453125 L 220.328125 361.394531 L 240.136719 381.203125 L 232.074219 407.492188 C 244.871094 415.777344 259.238281 421.839844 274.632812 425.132812 L 287.527344 400.835938 L 315.542969 400.835938 L 328.4375 425.132812 C 343.832031 421.839844 358.199219 415.777344 370.996094 407.492188 L 362.933594 381.203125 L 382.742188 361.394531 L 409.03125 369.453125 C 417.316406 356.660156 423.378906 342.292969 426.671875 326.898438 L 402.375 314 L 402.375 285.988281 L 426.671875 273.09375 " fill-opacity="1" fill-rule="nonzero"/></g><g clip-path="url(#58814e7174)"><path fill="#cc650b" d="M 511.375 300.023438 L 501.859375 300.023438 C 501.855469 355.359375 479.457031 405.375 443.195312 441.652344 C 406.914062 477.917969 356.898438 500.320312 301.5625 500.324219 C 246.222656 500.320312 196.207031 477.921875 159.929688 441.660156 C 123.667969 405.375 101.265625 355.367188 101.257812 300.023438 C 101.265625 244.683594 123.660156 194.667969 159.921875 158.390625 C 196.207031 122.128906 246.222656 99.722656 301.5625 99.71875 C 356.898438 99.722656 406.914062 122.121094 443.195312 158.382812 C 479.457031 194.667969 501.859375 244.683594 501.863281 300.023438 L 520.890625 300.023438 C 520.886719 178.882812 422.695312 80.695312 301.5625 80.691406 C 180.425781 80.695312 82.238281 178.882812 82.230469 300.023438 C 82.238281 421.160156 180.425781 519.347656 301.5625 519.351562 C 422.699219 519.347656 520.886719 421.160156 520.890625 300.023438 Z M 511.375 300.023438 " fill-opacity="1" fill-rule="nonzero"/></g><g clip-path="url(#1f45064bb9)"><path fill="#cc650b" d="M 505.984375 167.566406 C 482.027344 167.566406 462.535156 148.078125 462.535156 124.121094 C 462.535156 100.164062 482.027344 80.675781 505.984375 80.675781 C 529.9375 80.675781 549.429688 100.164062 549.429688 124.121094 C 549.429688 148.078125 529.9375 167.566406 505.984375 167.566406 Z M 505.984375 99.214844 C 492.25 99.214844 481.078125 110.390625 481.078125 124.121094 C 481.078125 137.855469 492.25 149.027344 505.984375 149.027344 C 519.714844 149.027344 530.886719 137.855469 530.886719 124.121094 C 530.886719 110.390625 519.714844 99.214844 505.984375 99.214844 Z M 505.984375 99.214844 " fill-opacity="1" fill-rule="nonzero"/></g></svg>
