<svg xmlns="http://www.w3.org/2000/svg" xmlns:xlink="http://www.w3.org/1999/xlink" width="1100" zoomAndPan="magnify" viewBox="0 0 824.88 599.999999" height="800" preserveAspectRatio="xMidYMid meet" version="1.0"><defs><clipPath id="fe137df1bc"><path d="M 0 0.0429688 L 824.761719 0.0429688 L 824.761719 599.957031 L 0 599.957031 Z M 0 0.0429688 " clip-rule="nonzero"/></clipPath><clipPath id="d91833f85c"><path d="M 0 0.0429688 L 824.761719 0.0429688 L 824.761719 599.957031 L 0 599.957031 Z M 0 0.0429688 " clip-rule="nonzero"/></clipPath><clipPath id="8da6e22625"><rect x="0" width="825" y="0" height="600"/></clipPath><clipPath id="5cf96a3413"><path d="M 193 160.140625 L 632 160.140625 L 632 540 L 193 540 Z M 193 160.140625 " clip-rule="nonzero"/></clipPath><clipPath id="e437be9c8f"><path d="M 193 160.140625 L 413 160.140625 L 413 540 L 193 540 Z M 193 160.140625 " clip-rule="nonzero"/></clipPath><clipPath id="3f1ec1f134"><path d="M 113 180.015625 L 273.472656 180.015625 L 273.472656 419.984375 L 113 419.984375 Z M 113 180.015625 " clip-rule="nonzero"/></clipPath><clipPath id="050b39d680"><path d="M 551.351562 180.015625 L 712 180.015625 L 712 419.984375 L 551.351562 419.984375 Z M 551.351562 180.015625 " clip-rule="nonzero"/></clipPath><clipPath id="b4ad8fc62c"><path d="M 0.398438 0.257812 L 160.738281 0.257812 L 160.738281 239.984375 L 0.398438 239.984375 Z M 0.398438 0.257812 " clip-rule="nonzero"/></clipPath><clipPath id="59ea89a3b6"><rect x="0" width="161" y="0" height="240"/></clipPath></defs><g clip-path="url(#fe137df1bc)"><path fill="#ffffff" d="M 0 0.0429688 L 824.878906 0.0429688 L 824.878906 599.957031 L 0 599.957031 Z M 0 0.0429688 " fill-opacity="1" fill-rule="nonzero"/><path fill="#ffffff" d="M 0 0.0429688 L 824.878906 0.0429688 L 824.878906 599.957031 L 0 599.957031 Z M 0 0.0429688 " fill-opacity="1" fill-rule="nonzero"/><g transform="matrix(1, 0, 0, 1, 0, -0.000000000000171793)"><g clip-path="url(#8da6e22625)"><g clip-path="url(#d91833f85c)"><path fill="#c18f65" d="M 0 0.0429688 L 824.878906 0.0429688 L 824.878906 599.957031 L 0 599.957031 Z M 0 0.0429688 " fill-opacity="1" fill-rule="nonzero"/></g></g></g></g><g clip-path="url(#5cf96a3413)"><path fill="#a06c3d" d="M 412.40625 539.957031 L 193.152344 539.957031 L 302.78125 350.046875 L 412.40625 160.140625 L 522.089844 350.046875 L 631.71875 539.957031 Z M 412.40625 539.957031 " fill-opacity="1" fill-rule="nonzero"/></g><g clip-path="url(#e437be9c8f)"><path fill="#905f37" d="M 412.40625 160.140625 L 412.40625 539.957031 L 193.207031 539.957031 Z M 412.40625 160.140625 " fill-opacity="1" fill-rule="nonzero"/></g><path fill="#6e4321" d="M 193.207031 539.957031 L 412.40625 384.421875 L 631.664062 539.957031 Z M 193.207031 539.957031 " fill-opacity="1" fill-rule="nonzero"/><g clip-path="url(#3f1ec1f134)"><path fill="#6e4321" d="M 204.84375 321.226562 C 209.3125 322.679688 213.871094 323.921875 218.207031 325.703125 C 219.636719 326.289062 220.503906 328.265625 221.625 329.601562 C 220.21875 330.6875 218.957031 332.414062 217.386719 332.757812 C 207.875 334.855469 198.234375 336.371094 188.75 338.578125 C 170.871094 342.75 153.097656 347.394531 135.207031 351.527344 C 130.582031 352.59375 125.6875 352.675781 120.902344 352.792969 C 119.164062 352.835938 117.214844 351.949219 115.683594 350.976562 C 112.265625 348.820312 112.445312 345.878906 115.945312 343.863281 C 116.824219 343.359375 117.777344 342.929688 118.753906 342.679688 C 144.296875 336.085938 169.832031 329.484375 195.402344 323 C 198.332031 322.261719 201.441406 322.210938 204.464844 321.84375 C 204.59375 321.640625 204.71875 321.429688 204.847656 321.226562 Z M 155.117188 221.578125 C 154.539062 222.71875 155.828125 225.339844 156.972656 226.730469 C 160.683594 231.222656 164.867188 235.324219 168.589844 239.808594 C 180.425781 254.058594 191.945312 268.574219 204.015625 282.621094 C 207.628906 286.828125 212.410156 290.203125 217.132812 293.207031 C 218.882812 294.320312 222.328125 293.933594 224.363281 292.933594 C 225.339844 292.457031 225.148438 288.921875 224.898438 286.847656 C 224.714844 285.359375 223.800781 283.785156 222.796875 282.597656 C 207.804688 264.917969 192.855469 247.199219 177.605469 229.742188 C 174.597656 226.296875 170.480469 223.757812 166.671875 221.089844 C 164.949219 219.882812 162.726562 219.378906 160.148438 218.320312 C 158.421875 219.339844 155.90625 220.023438 155.117188 221.578125 Z M 272.589844 252.769531 C 272.414062 251.621094 272.253906 250.46875 272.0625 249.324219 C 269.519531 234.257812 267.0625 219.175781 264.394531 204.132812 C 263.328125 198.140625 262.101562 192.136719 260.375 186.3125 C 259.089844 181.984375 254.804688 180.023438 250.652344 180.921875 C 246.035156 181.917969 246.796875 185.582031 247.109375 188.617188 C 248.890625 205.980469 250.710938 223.34375 252.84375 240.667969 C 253.554688 246.484375 253.601562 252.566406 257.800781 257.566406 C 260.519531 260.808594 263.640625 264.136719 267.574219 262.050781 C 270.316406 260.597656 271.601562 256.40625 273.539062 253.4375 C 273.222656 253.214844 272.90625 252.988281 272.589844 252.765625 Z M 173.042969 416.011719 C 188.914062 405.878906 204.683594 395.59375 220.472656 385.335938 C 221.566406 384.625 222.652344 383.835938 223.550781 382.898438 C 226.125 380.214844 225.792969 377.777344 222.683594 375.652344 C 219.085938 373.1875 214.429688 373.21875 210.355469 376.011719 C 193.984375 387.230469 177.609375 398.457031 161.367188 409.863281 C 159.707031 411.027344 157.5 414.292969 157.976562 415.054688 C 159.28125 417.117188 161.886719 418.359375 164.074219 419.996094 C 167.554688 418.476562 170.535156 417.617188 173.046875 416.011719 Z M 173.042969 416.011719 " fill-opacity="1" fill-rule="nonzero"/></g><g clip-path="url(#050b39d680)"><g transform="matrix(1, 0, 0, 1, 551, 180)"><g clip-path="url(#59ea89a3b6)"><g clip-path="url(#b4ad8fc62c)"><path fill="#6e4321" d="M 69.027344 141.226562 C 64.558594 142.679688 60 143.921875 55.664062 145.703125 C 54.234375 146.289062 53.367188 148.265625 52.246094 149.601562 C 53.652344 150.6875 54.914062 152.414062 56.480469 152.757812 C 65.996094 154.855469 75.636719 156.371094 85.121094 158.578125 C 103 162.75 120.773438 167.394531 138.664062 171.527344 C 143.289062 172.59375 148.183594 172.675781 152.96875 172.792969 C 154.703125 172.835938 156.65625 171.949219 158.1875 170.976562 C 161.605469 168.820312 161.421875 165.878906 157.921875 163.863281 C 157.046875 163.359375 156.089844 162.929688 155.113281 162.679688 C 129.574219 156.085938 104.039062 149.484375 78.46875 143 C 75.539062 142.261719 72.429688 142.210938 69.402344 141.84375 C 69.277344 141.640625 69.152344 141.429688 69.023438 141.226562 Z M 118.753906 41.578125 C 119.332031 42.71875 118.042969 45.339844 116.898438 46.730469 C 113.1875 51.222656 109.003906 55.324219 105.28125 59.808594 C 93.441406 74.058594 81.925781 88.574219 69.855469 102.621094 C 66.242188 106.828125 61.460938 110.203125 56.738281 113.207031 C 54.988281 114.320312 51.542969 113.933594 49.507812 112.933594 C 48.53125 112.457031 48.71875 108.921875 48.972656 106.847656 C 49.15625 105.359375 50.070312 103.785156 51.074219 102.597656 C 66.0625 84.917969 81.015625 67.199219 96.265625 49.742188 C 99.273438 46.296875 103.390625 43.757812 107.195312 41.089844 C 108.921875 39.882812 111.140625 39.378906 113.722656 38.320312 C 115.445312 39.339844 117.964844 40.023438 118.753906 41.578125 Z M 1.28125 72.769531 C 1.457031 71.621094 1.617188 70.46875 1.808594 69.324219 C 4.351562 54.257812 6.808594 39.175781 9.476562 24.132812 C 10.542969 18.140625 11.769531 12.136719 13.496094 6.3125 C 14.78125 1.984375 19.066406 0.0234375 23.21875 0.921875 C 27.835938 1.917969 27.074219 5.582031 26.761719 8.617188 C 24.980469 25.980469 23.160156 43.34375 21.027344 60.667969 C 20.3125 66.484375 20.269531 72.566406 16.070312 77.566406 C 13.351562 80.808594 10.230469 84.136719 6.296875 82.050781 C 3.554688 80.597656 2.265625 76.40625 0.328125 73.4375 C 0.644531 73.214844 0.960938 72.988281 1.28125 72.765625 Z M 100.828125 236.011719 C 84.957031 225.878906 69.1875 215.59375 53.398438 205.335938 C 52.304688 204.625 51.21875 203.835938 50.320312 202.898438 C 47.746094 200.214844 48.078125 197.777344 51.1875 195.652344 C 54.785156 193.1875 59.441406 193.21875 63.515625 196.011719 C 79.886719 207.230469 96.261719 218.457031 112.503906 229.863281 C 114.164062 231.027344 116.371094 234.292969 115.894531 235.054688 C 114.589844 237.117188 111.984375 238.359375 109.796875 239.996094 C 106.316406 238.476562 103.335938 237.617188 100.824219 236.011719 Z M 100.828125 236.011719 " fill-opacity="1" fill-rule="nonzero"/></g></g></g></g></svg>