<svg xmlns="http://www.w3.org/2000/svg" xmlns:xlink="http://www.w3.org/1999/xlink" width="1100" zoomAndPan="magnify" viewBox="0 0 824.88 599.999999" height="800" preserveAspectRatio="xMidYMid meet" version="1.0"><defs><clipPath id="ae780ad96f"><path d="M 0 0.0429688 L 824.761719 0.0429688 L 824.761719 599.957031 L 0 599.957031 Z M 0 0.0429688 " clip-rule="nonzero"/></clipPath><clipPath id="bce5331d73"><path d="M 0 0.0429688 L 824.761719 0.0429688 L 824.761719 599.957031 L 0 599.957031 Z M 0 0.0429688 " clip-rule="nonzero"/></clipPath><clipPath id="3ae497e5aa"><rect x="0" width="825" y="0" height="600"/></clipPath><clipPath id="6483705176"><path d="M 59.992188 60.035156 L 299.957031 60.035156 L 299.957031 300 L 59.992188 300 Z M 59.992188 60.035156 " clip-rule="nonzero"/></clipPath><clipPath id="521250f9d2"><path d="M 59.992188 300 L 299.957031 300 L 299.957031 539.964844 L 59.992188 539.964844 Z M 59.992188 300 " clip-rule="nonzero"/></clipPath><clipPath id="9618025d19"><path d="M 299.957031 60.035156 L 539.921875 60.035156 L 539.921875 300 L 299.957031 300 Z M 299.957031 60.035156 " clip-rule="nonzero"/></clipPath><clipPath id="e944a1b93c"><path d="M 299.957031 300 L 539.921875 300 L 539.921875 539.964844 L 299.957031 539.964844 Z M 299.957031 300 " clip-rule="nonzero"/></clipPath><clipPath id="d18cd1da00"><path d="M 487 223 L 628 223 L 628 347 L 487 347 Z M 487 223 " clip-rule="nonzero"/></clipPath><clipPath id="fde16f8621"><path d="M 487.085938 261.265625 L 515.722656 223.890625 L 627.378906 309.433594 L 598.746094 346.8125 Z M 487.085938 261.265625 " clip-rule="nonzero"/></clipPath><clipPath id="537dd8b20b"><path d="M 0 0.691406 L 140.507812 0.691406 L 140.507812 124 L 0 124 Z M 0 0.691406 " clip-rule="nonzero"/></clipPath><clipPath id="1f8b154a48"><path d="M 0.0859375 38.265625 L 28.722656 0.890625 L 140.378906 86.433594 L 111.746094 123.8125 Z M 0.0859375 38.265625 " clip-rule="nonzero"/></clipPath><clipPath id="0f35619e06"><rect x="0" width="141" y="0" height="124"/></clipPath></defs><g clip-path="url(#ae780ad96f)"><path fill="#ffffff" d="M 0 0.0429688 L 824.878906 0.0429688 L 824.878906 599.957031 L 0 599.957031 Z M 0 0.0429688 " fill-opacity="1" fill-rule="nonzero"/><path fill="#ffffff" d="M 0 0.0429688 L 824.878906 0.0429688 L 824.878906 599.957031 L 0 599.957031 Z M 0 0.0429688 " fill-opacity="1" fill-rule="nonzero"/><g transform="matrix(1, 0, 0, 1, 0, -0.000000000000171793)"><g clip-path="url(#3ae497e5aa)"><g clip-path="url(#bce5331d73)"><path fill="#a0daf6" d="M 0 0.0429688 L 824.878906 0.0429688 L 824.878906 599.957031 L 0 599.957031 Z M 0 0.0429688 " fill-opacity="1" fill-rule="nonzero"/></g></g></g></g><g clip-path="url(#6483705176)"><path fill="#5ba9d0" d="M 179.972656 300 C 178.011719 300 176.046875 299.953125 174.085938 299.855469 C 172.125 299.757812 170.167969 299.613281 168.214844 299.421875 C 166.257812 299.230469 164.3125 298.988281 162.367188 298.703125 C 160.425781 298.414062 158.492188 298.078125 156.566406 297.695312 C 154.640625 297.3125 152.726562 296.882812 150.820312 296.402344 C 148.914062 295.925781 147.023438 295.402344 145.144531 294.832031 C 143.265625 294.261719 141.402344 293.648438 139.554688 292.984375 C 137.703125 292.324219 135.871094 291.617188 134.058594 290.867188 C 132.246094 290.117188 130.449219 289.320312 128.675781 288.480469 C 126.898438 287.640625 125.144531 286.757812 123.414062 285.832031 C 121.683594 284.90625 119.976562 283.9375 118.289062 282.929688 C 116.605469 281.921875 114.949219 280.871094 113.316406 279.777344 C 111.683594 278.6875 110.078125 277.558594 108.5 276.386719 C 106.921875 275.21875 105.375 274.011719 103.859375 272.765625 C 102.339844 271.519531 100.851562 270.238281 99.398438 268.917969 C 97.945312 267.601562 96.523438 266.246094 95.132812 264.859375 C 93.746094 263.46875 92.390625 262.046875 91.074219 260.59375 C 89.753906 259.136719 88.472656 257.652344 87.226562 256.132812 C 85.980469 254.617188 84.773438 253.066406 83.601562 251.492188 C 82.433594 249.914062 81.304688 248.308594 80.210938 246.675781 C 79.121094 245.042969 78.070312 243.386719 77.0625 241.699219 C 76.050781 240.015625 75.085938 238.308594 74.160156 236.578125 C 73.234375 234.84375 72.351562 233.089844 71.511719 231.316406 C 70.671875 229.542969 69.875 227.746094 69.125 225.933594 C 68.371094 224.117188 67.667969 222.289062 67.003906 220.4375 C 66.34375 218.589844 65.726562 216.726562 65.15625 214.847656 C 64.585938 212.96875 64.0625 211.074219 63.585938 209.171875 C 63.109375 207.265625 62.679688 205.351562 62.296875 203.425781 C 61.914062 201.5 61.578125 199.566406 61.289062 197.621094 C 61 195.679688 60.761719 193.730469 60.570312 191.777344 C 60.375 189.824219 60.230469 187.867188 60.136719 185.90625 C 60.039062 183.945312 59.992188 181.980469 59.992188 180.015625 C 59.992188 178.054688 60.039062 176.089844 60.136719 174.128906 C 60.230469 172.167969 60.375 170.210938 60.570312 168.257812 C 60.761719 166.304688 61 164.355469 61.289062 162.414062 C 61.578125 160.46875 61.914062 158.535156 62.296875 156.609375 C 62.679688 154.683594 63.109375 152.769531 63.585938 150.863281 C 64.0625 148.960938 64.585938 147.066406 65.15625 145.1875 C 65.726562 143.308594 66.34375 141.445312 67.003906 139.597656 C 67.667969 137.746094 68.371094 135.917969 69.125 134.101562 C 69.875 132.289062 70.671875 130.492188 71.511719 128.71875 C 72.351562 126.941406 73.234375 125.191406 74.160156 123.457031 C 75.085938 121.726562 76.050781 120.019531 77.0625 118.335938 C 78.070312 116.648438 79.121094 114.992188 80.210938 113.359375 C 81.304688 111.726562 82.433594 110.121094 83.601562 108.542969 C 84.773438 106.964844 85.980469 105.417969 87.226562 103.902344 C 88.472656 102.382812 89.753906 100.898438 91.074219 99.441406 C 92.390625 97.988281 93.746094 96.566406 95.132812 95.175781 C 96.523438 93.789062 97.945312 92.433594 99.398438 91.117188 C 100.851562 89.796875 102.339844 88.515625 103.859375 87.269531 C 105.375 86.023438 106.921875 84.816406 108.5 83.648438 C 110.078125 82.476562 111.683594 81.347656 113.316406 80.253906 C 114.949219 79.164062 116.605469 78.113281 118.289062 77.105469 C 119.976562 76.09375 121.683594 75.128906 123.414062 74.203125 C 125.144531 73.277344 126.898438 72.394531 128.675781 71.554688 C 130.449219 70.714844 132.246094 69.917969 134.058594 69.167969 C 135.871094 68.417969 137.703125 67.710938 139.554688 67.046875 C 141.402344 66.386719 143.265625 65.769531 145.144531 65.203125 C 147.023438 64.632812 148.914062 64.109375 150.820312 63.628906 C 152.726562 63.152344 154.640625 62.722656 156.566406 62.339844 C 158.492188 61.957031 160.425781 61.621094 162.367188 61.332031 C 164.3125 61.046875 166.257812 60.804688 168.214844 60.613281 C 170.167969 60.421875 172.125 60.277344 174.085938 60.179688 C 176.046875 60.082031 178.011719 60.035156 179.972656 60.035156 C 181.9375 60.035156 183.898438 60.082031 185.859375 60.179688 C 187.824219 60.277344 189.78125 60.421875 191.734375 60.613281 C 193.6875 60.804688 195.636719 61.046875 197.578125 61.332031 C 199.519531 61.621094 201.457031 61.957031 203.382812 62.339844 C 205.308594 62.722656 207.222656 63.152344 209.128906 63.628906 C 211.03125 64.109375 212.925781 64.632812 214.804688 65.203125 C 216.683594 65.769531 218.546875 66.386719 220.394531 67.046875 C 222.242188 67.710938 224.074219 68.417969 225.890625 69.167969 C 227.703125 69.917969 229.496094 70.714844 231.273438 71.554688 C 233.046875 72.394531 234.800781 73.277344 236.53125 74.203125 C 238.265625 75.128906 239.972656 76.09375 241.65625 77.105469 C 243.339844 78.113281 245 79.164062 246.632812 80.253906 C 248.265625 81.347656 249.871094 82.476562 251.449219 83.648438 C 253.023438 84.816406 254.570312 86.023438 256.089844 87.269531 C 257.609375 88.515625 259.09375 89.796875 260.550781 91.117188 C 262.003906 92.433594 263.425781 93.789062 264.8125 95.175781 C 266.203125 96.566406 267.554688 97.988281 268.875 99.441406 C 270.195312 100.898438 271.476562 102.382812 272.722656 103.902344 C 273.96875 105.417969 275.175781 106.964844 276.34375 108.542969 C 277.515625 110.121094 278.644531 111.726562 279.734375 113.359375 C 280.828125 114.992188 281.875 116.648438 282.886719 118.335938 C 283.894531 120.019531 284.863281 121.726562 285.789062 123.457031 C 286.714844 125.191406 287.597656 126.941406 288.4375 128.71875 C 289.277344 130.492188 290.070312 132.289062 290.824219 134.101562 C 291.574219 135.917969 292.28125 137.746094 292.941406 139.597656 C 293.605469 141.445312 294.21875 143.308594 294.789062 145.1875 C 295.359375 147.066406 295.882812 148.960938 296.359375 150.863281 C 296.835938 152.769531 297.269531 154.683594 297.652344 156.609375 C 298.035156 158.535156 298.371094 160.46875 298.65625 162.414062 C 298.945312 164.355469 299.1875 166.304688 299.378906 168.257812 C 299.570312 170.210938 299.714844 172.167969 299.8125 174.128906 C 299.90625 176.089844 299.957031 178.054688 299.957031 180.015625 C 299.953125 181.980469 299.902344 183.941406 299.804688 185.902344 C 299.707031 187.863281 299.5625 189.820312 299.367188 191.773438 C 299.171875 193.726562 298.929688 195.675781 298.640625 197.617188 C 298.351562 199.558594 298.011719 201.492188 297.628906 203.414062 C 297.242188 205.339844 296.8125 207.253906 296.332031 209.160156 C 295.855469 211.0625 295.332031 212.953125 294.757812 214.832031 C 294.1875 216.710938 293.570312 218.574219 292.910156 220.421875 C 292.246094 222.269531 291.539062 224.097656 290.785156 225.910156 C 290.035156 227.726562 289.238281 229.519531 288.398438 231.292969 C 287.558594 233.066406 286.675781 234.820312 285.75 236.550781 C 284.824219 238.28125 283.855469 239.988281 282.84375 241.671875 C 281.835938 243.355469 280.785156 245.011719 279.695312 246.644531 C 278.601562 248.277344 277.472656 249.878906 276.300781 251.457031 C 275.132812 253.03125 273.925781 254.578125 272.679688 256.097656 C 271.433594 257.613281 270.152344 259.101562 268.835938 260.554688 C 267.515625 262.007812 266.164062 263.429688 264.773438 264.816406 C 263.386719 266.207031 261.964844 267.558594 260.511719 268.878906 C 259.054688 270.195312 257.570312 271.476562 256.054688 272.722656 C 254.535156 273.96875 252.988281 275.175781 251.414062 276.347656 C 249.835938 277.515625 248.230469 278.644531 246.601562 279.738281 C 244.96875 280.828125 243.3125 281.878906 241.628906 282.886719 C 239.945312 283.898438 238.238281 284.867188 236.507812 285.792969 C 234.773438 286.71875 233.023438 287.601562 231.25 288.441406 C 229.476562 289.28125 227.679688 290.078125 225.867188 290.832031 C 224.054688 291.582031 222.222656 292.289062 220.375 292.953125 C 218.527344 293.613281 216.664062 294.230469 214.789062 294.804688 C 212.910156 295.375 211.019531 295.898438 209.113281 296.378906 C 207.210938 296.855469 205.296875 297.289062 203.371094 297.671875 C 201.445312 298.054688 199.511719 298.394531 197.570312 298.683594 C 195.628906 298.972656 193.683594 299.214844 191.730469 299.410156 C 189.777344 299.605469 187.820312 299.75 185.859375 299.847656 C 183.898438 299.949219 181.9375 299.996094 179.972656 300 Z M 179.972656 97.101562 C 178.617188 97.101562 177.257812 97.136719 175.902344 97.203125 C 174.546875 97.269531 173.191406 97.371094 171.839844 97.503906 C 170.488281 97.636719 169.140625 97.800781 167.796875 98 C 166.453125 98.199219 165.117188 98.433594 163.785156 98.699219 C 162.453125 98.960938 161.128906 99.261719 159.808594 99.589844 C 158.492188 99.921875 157.183594 100.28125 155.882812 100.675781 C 154.585938 101.070312 153.296875 101.496094 152.015625 101.953125 C 150.738281 102.410156 149.472656 102.902344 148.21875 103.421875 C 146.960938 103.941406 145.722656 104.492188 144.492188 105.070312 C 143.265625 105.652344 142.054688 106.261719 140.855469 106.902344 C 139.65625 107.542969 138.476562 108.210938 137.3125 108.910156 C 136.144531 109.609375 135 110.335938 133.871094 111.089844 C 132.742188 111.84375 131.632812 112.625 130.539062 113.4375 C 129.449219 114.246094 128.378906 115.082031 127.328125 115.941406 C 126.28125 116.804688 125.25 117.691406 124.246094 118.601562 C 123.238281 119.515625 122.257812 120.453125 121.296875 121.410156 C 120.335938 122.371094 119.398438 123.355469 118.488281 124.363281 C 117.574219 125.367188 116.6875 126.398438 115.828125 127.445312 C 114.964844 128.496094 114.132812 129.566406 113.320312 130.660156 C 112.511719 131.75 111.730469 132.859375 110.976562 133.988281 C 110.222656 135.117188 109.496094 136.265625 108.796875 137.429688 C 108.101562 138.59375 107.429688 139.777344 106.792969 140.972656 C 106.152344 142.171875 105.542969 143.386719 104.960938 144.613281 C 104.378906 145.839844 103.832031 147.082031 103.3125 148.335938 C 102.792969 149.59375 102.304688 150.859375 101.84375 152.136719 C 101.386719 153.417969 100.960938 154.707031 100.570312 156.003906 C 100.175781 157.304688 99.8125 158.613281 99.484375 159.929688 C 99.152344 161.25 98.855469 162.574219 98.589844 163.90625 C 98.328125 165.238281 98.09375 166.574219 97.894531 167.917969 C 97.695312 169.261719 97.53125 170.609375 97.398438 171.960938 C 97.265625 173.3125 97.164062 174.667969 97.097656 176.023438 C 97.035156 177.378906 97 178.738281 97 180.09375 C 97 181.453125 97.035156 182.8125 97.101562 184.167969 C 97.167969 185.523438 97.269531 186.878906 97.402344 188.230469 C 97.535156 189.582031 97.703125 190.929688 97.902344 192.273438 C 98.101562 193.613281 98.332031 194.953125 98.597656 196.285156 C 98.863281 197.617188 99.164062 198.941406 99.492188 200.257812 C 99.824219 201.574219 100.183594 202.882812 100.582031 204.183594 C 100.976562 205.484375 101.402344 206.773438 101.859375 208.050781 C 102.316406 209.328125 102.804688 210.597656 103.324219 211.851562 C 103.847656 213.105469 104.398438 214.347656 104.976562 215.574219 C 105.558594 216.800781 106.167969 218.015625 106.808594 219.210938 C 107.449219 220.410156 108.121094 221.589844 108.820312 222.753906 C 109.515625 223.921875 110.242188 225.066406 111 226.195312 C 111.753906 227.324219 112.535156 228.433594 113.34375 229.523438 C 114.15625 230.617188 114.992188 231.6875 115.851562 232.734375 C 116.714844 233.785156 117.601562 234.8125 118.515625 235.820312 C 119.425781 236.824219 120.363281 237.808594 121.324219 238.769531 C 122.285156 239.726562 123.269531 240.664062 124.273438 241.574219 C 125.28125 242.488281 126.308594 243.375 127.359375 244.234375 C 128.410156 245.097656 129.480469 245.929688 130.570312 246.738281 C 131.664062 247.546875 132.773438 248.328125 133.902344 249.082031 C 135.03125 249.835938 136.179688 250.5625 137.34375 251.261719 C 138.511719 251.957031 139.691406 252.628906 140.890625 253.265625 C 142.085938 253.90625 143.300781 254.515625 144.527344 255.097656 C 145.757812 255.675781 146.996094 256.226562 148.253906 256.746094 C 149.507812 257.265625 150.773438 257.753906 152.054688 258.210938 C 153.332031 258.667969 154.621094 259.09375 155.921875 259.488281 C 157.222656 259.878906 158.53125 260.242188 159.847656 260.570312 C 161.164062 260.902344 162.492188 261.199219 163.824219 261.460938 C 165.15625 261.726562 166.492188 261.957031 167.835938 262.15625 C 169.179688 262.355469 170.527344 262.519531 171.878906 262.652344 C 173.230469 262.785156 174.585938 262.886719 175.941406 262.953125 C 177.296875 263.015625 178.65625 263.050781 180.011719 263.050781 C 181.371094 263.046875 182.726562 263.015625 184.085938 262.949219 C 185.441406 262.878906 186.796875 262.78125 188.148438 262.644531 C 189.5 262.511719 190.84375 262.34375 192.1875 262.144531 C 193.53125 261.945312 194.871094 261.710938 196.203125 261.445312 C 197.535156 261.179688 198.859375 260.882812 200.175781 260.550781 C 201.492188 260.222656 202.800781 259.859375 204.101562 259.464844 C 205.398438 259.070312 206.6875 258.644531 207.96875 258.183594 C 209.246094 257.726562 210.511719 257.238281 211.765625 256.714844 C 213.019531 256.195312 214.261719 255.644531 215.488281 255.0625 C 216.71875 254.484375 217.929688 253.871094 219.128906 253.230469 C 220.324219 252.589844 221.503906 251.917969 222.667969 251.222656 C 223.835938 250.523438 224.980469 249.796875 226.109375 249.039062 C 227.238281 248.285156 228.347656 247.503906 229.4375 246.691406 C 230.527344 245.882812 231.597656 245.046875 232.648438 244.183594 C 233.699219 243.324219 234.726562 242.433594 235.730469 241.523438 C 236.738281 240.609375 237.71875 239.671875 238.679688 238.710938 C 239.640625 237.75 240.574219 236.769531 241.484375 235.761719 C 242.398438 234.753906 243.285156 233.726562 244.144531 232.675781 C 245.003906 231.625 245.839844 230.554688 246.648438 229.460938 C 247.457031 228.371094 248.238281 227.261719 248.992188 226.132812 C 249.746094 225 250.472656 223.855469 251.167969 222.6875 C 251.867188 221.523438 252.535156 220.339844 253.175781 219.144531 C 253.8125 217.945312 254.421875 216.730469 255.003906 215.503906 C 255.582031 214.277344 256.132812 213.035156 256.652344 211.777344 C 257.171875 210.523438 257.660156 209.257812 258.113281 207.976562 C 258.570312 206.699219 258.996094 205.410156 259.390625 204.109375 C 259.785156 202.808594 260.144531 201.5 260.472656 200.183594 C 260.804688 198.867188 261.101562 197.539062 261.363281 196.207031 C 261.628906 194.875 261.859375 193.539062 262.058594 192.195312 C 262.253906 190.851562 262.421875 189.503906 262.554688 188.152344 C 262.683594 186.800781 262.785156 185.445312 262.851562 184.089844 C 262.914062 182.734375 262.949219 181.375 262.945312 180.015625 C 262.945312 178.660156 262.910156 177.304688 262.84375 175.949219 C 262.773438 174.589844 262.671875 173.238281 262.539062 171.886719 C 262.402344 170.535156 262.238281 169.191406 262.035156 167.847656 C 261.835938 166.503906 261.601562 165.167969 261.335938 163.835938 C 261.070312 162.503906 260.773438 161.183594 260.441406 159.867188 C 260.109375 158.550781 259.746094 157.242188 259.351562 155.941406 C 258.957031 154.644531 258.53125 153.355469 258.074219 152.078125 C 257.613281 150.800781 257.125 149.535156 256.605469 148.28125 C 256.085938 147.027344 255.535156 145.785156 254.953125 144.558594 C 254.371094 143.332031 253.761719 142.121094 253.121094 140.921875 C 252.480469 139.726562 251.8125 138.546875 251.113281 137.382812 C 250.414062 136.21875 249.6875 135.070312 248.933594 133.941406 C 248.179688 132.816406 247.398438 131.707031 246.589844 130.613281 C 245.78125 129.523438 244.945312 128.457031 244.082031 127.40625 C 243.222656 126.355469 242.335938 125.328125 241.421875 124.324219 C 240.511719 123.316406 239.574219 122.335938 238.617188 121.375 C 237.65625 120.414062 236.671875 119.480469 235.667969 118.566406 C 234.660156 117.65625 233.632812 116.769531 232.585938 115.90625 C 231.535156 115.046875 230.464844 114.210938 229.375 113.402344 C 228.285156 112.59375 227.175781 111.8125 226.046875 111.058594 C 224.917969 110.304688 223.773438 109.578125 222.609375 108.878906 C 221.445312 108.179688 220.265625 107.511719 219.066406 106.871094 C 217.871094 106.230469 216.660156 105.617188 215.433594 105.039062 C 214.207031 104.457031 212.964844 103.90625 211.710938 103.386719 C 210.457031 102.867188 209.191406 102.375 207.914062 101.917969 C 206.636719 101.460938 205.347656 101.035156 204.046875 100.640625 C 202.75 100.242188 201.441406 99.882812 200.125 99.550781 C 198.808594 99.21875 197.484375 98.921875 196.15625 98.65625 C 194.824219 98.386719 193.484375 98.15625 192.144531 97.953125 C 190.800781 97.753906 189.453125 97.585938 188.105469 97.453125 C 186.753906 97.316406 185.398438 97.21875 184.042969 97.148438 C 182.6875 97.082031 181.332031 97.046875 179.972656 97.042969 Z M 179.972656 97.101562 " fill-opacity="1" fill-rule="nonzero"/></g><g clip-path="url(#521250f9d2)"><path fill="#5ba9d0" d="M 179.972656 539.964844 C 178.011719 539.964844 176.046875 539.917969 174.085938 539.820312 C 172.125 539.722656 170.167969 539.578125 168.214844 539.386719 C 166.257812 539.195312 164.3125 538.953125 162.367188 538.667969 C 160.425781 538.378906 158.492188 538.042969 156.566406 537.660156 C 154.640625 537.277344 152.726562 536.847656 150.820312 536.371094 C 148.914062 535.890625 147.023438 535.367188 145.144531 534.796875 C 143.265625 534.230469 141.402344 533.613281 139.554688 532.953125 C 137.703125 532.289062 135.871094 531.582031 134.058594 530.832031 C 132.246094 530.082031 130.449219 529.285156 128.675781 528.445312 C 126.898438 527.605469 125.144531 526.722656 123.414062 525.796875 C 121.683594 524.871094 119.976562 523.90625 118.289062 522.894531 C 116.605469 521.886719 114.949219 520.835938 113.316406 519.746094 C 111.683594 518.652344 110.078125 517.523438 108.5 516.351562 C 106.921875 515.183594 105.375 513.976562 103.859375 512.730469 C 102.339844 511.484375 100.851562 510.203125 99.398438 508.882812 C 97.945312 507.566406 96.523438 506.210938 95.132812 504.824219 C 93.746094 503.433594 92.390625 502.011719 91.074219 500.558594 C 89.753906 499.101562 88.472656 497.617188 87.226562 496.097656 C 85.980469 494.582031 84.773438 493.035156 83.601562 491.457031 C 82.433594 489.878906 81.304688 488.273438 80.210938 486.640625 C 79.121094 485.007812 78.070312 483.351562 77.0625 481.664062 C 76.050781 479.980469 75.085938 478.273438 74.160156 476.542969 C 73.234375 474.808594 72.351562 473.058594 71.511719 471.28125 C 70.671875 469.507812 69.875 467.710938 69.125 465.898438 C 68.371094 464.082031 67.667969 462.253906 67.003906 460.402344 C 66.34375 458.554688 65.726562 456.691406 65.15625 454.8125 C 64.585938 452.933594 64.0625 451.039062 63.585938 449.136719 C 63.109375 447.230469 62.679688 445.316406 62.296875 443.390625 C 61.914062 441.464844 61.578125 439.53125 61.289062 437.585938 C 61 435.644531 60.761719 433.695312 60.570312 431.742188 C 60.375 429.789062 60.230469 427.832031 60.136719 425.871094 C 60.039062 423.910156 59.992188 421.945312 59.992188 419.984375 C 59.992188 418.019531 60.039062 416.054688 60.136719 414.09375 C 60.230469 412.132812 60.375 410.175781 60.570312 408.222656 C 60.761719 406.269531 61 404.320312 61.289062 402.378906 C 61.578125 400.433594 61.914062 398.5 62.296875 396.574219 C 62.679688 394.648438 63.109375 392.734375 63.585938 390.828125 C 64.0625 388.925781 64.585938 387.03125 65.15625 385.152344 C 65.726562 383.273438 66.34375 381.410156 67.003906 379.5625 C 67.667969 377.710938 68.371094 375.882812 69.125 374.066406 C 69.875 372.253906 70.671875 370.457031 71.511719 368.683594 C 72.351562 366.910156 73.234375 365.15625 74.160156 363.421875 C 75.085938 361.691406 76.050781 359.984375 77.0625 358.300781 C 78.070312 356.613281 79.121094 354.957031 80.210938 353.324219 C 81.304688 351.691406 82.433594 350.085938 83.601562 348.507812 C 84.773438 346.933594 85.980469 345.382812 87.226562 343.867188 C 88.472656 342.347656 89.753906 340.863281 91.074219 339.40625 C 92.390625 337.953125 93.746094 336.53125 95.132812 335.140625 C 96.523438 333.753906 97.945312 332.398438 99.398438 331.082031 C 100.851562 329.761719 102.339844 328.480469 103.859375 327.234375 C 105.375 325.988281 106.921875 324.78125 108.5 323.613281 C 110.078125 322.441406 111.683594 321.3125 113.316406 320.222656 C 114.949219 319.128906 116.605469 318.078125 118.289062 317.070312 C 119.976562 316.0625 121.683594 315.09375 123.414062 314.167969 C 125.144531 313.242188 126.898438 312.359375 128.675781 311.519531 C 130.449219 310.679688 132.246094 309.882812 134.058594 309.132812 C 135.871094 308.382812 137.703125 307.675781 139.554688 307.015625 C 141.402344 306.351562 143.265625 305.738281 145.144531 305.167969 C 147.023438 304.597656 148.914062 304.074219 150.820312 303.597656 C 152.726562 303.117188 154.640625 302.6875 156.566406 302.304688 C 158.492188 301.921875 160.425781 301.585938 162.367188 301.296875 C 164.3125 301.011719 166.257812 300.769531 168.214844 300.578125 C 170.167969 300.386719 172.125 300.242188 174.085938 300.144531 C 176.046875 300.046875 178.011719 300 179.972656 300 C 181.9375 300 183.898438 300.046875 185.859375 300.144531 C 187.824219 300.242188 189.78125 300.386719 191.734375 300.578125 C 193.6875 300.769531 195.636719 301.011719 197.578125 301.296875 C 199.519531 301.585938 201.457031 301.921875 203.382812 302.304688 C 205.308594 302.6875 207.222656 303.117188 209.128906 303.597656 C 211.03125 304.074219 212.925781 304.597656 214.804688 305.167969 C 216.683594 305.738281 218.546875 306.351562 220.394531 307.015625 C 222.242188 307.675781 224.074219 308.382812 225.890625 309.132812 C 227.703125 309.882812 229.496094 310.679688 231.273438 311.519531 C 233.046875 312.359375 234.800781 313.242188 236.53125 314.167969 C 238.265625 315.09375 239.972656 316.0625 241.65625 317.070312 C 243.339844 318.078125 245 319.128906 246.632812 320.222656 C 248.265625 321.3125 249.871094 322.441406 251.449219 323.613281 C 253.023438 324.78125 254.570312 325.988281 256.089844 327.234375 C 257.609375 328.480469 259.09375 329.761719 260.550781 331.082031 C 262.003906 332.398438 263.425781 333.753906 264.8125 335.140625 C 266.203125 336.53125 267.554688 337.953125 268.875 339.40625 C 270.195312 340.863281 271.476562 342.347656 272.722656 343.867188 C 273.96875 345.382812 275.175781 346.933594 276.34375 348.507812 C 277.515625 350.085938 278.644531 351.691406 279.734375 353.324219 C 280.828125 354.957031 281.875 356.613281 282.886719 358.300781 C 283.894531 359.984375 284.863281 361.691406 285.789062 363.421875 C 286.714844 365.15625 287.597656 366.910156 288.4375 368.683594 C 289.277344 370.457031 290.070312 372.253906 290.824219 374.066406 C 291.574219 375.882812 292.28125 377.710938 292.941406 379.5625 C 293.605469 381.410156 294.21875 383.273438 294.789062 385.152344 C 295.359375 387.03125 295.882812 388.925781 296.359375 390.828125 C 296.835938 392.734375 297.269531 394.648438 297.652344 396.574219 C 298.035156 398.5 298.371094 400.433594 298.65625 402.378906 C 298.945312 404.320312 299.1875 406.269531 299.378906 408.222656 C 299.570312 410.175781 299.714844 412.132812 299.8125 414.09375 C 299.90625 416.054688 299.957031 418.019531 299.957031 419.984375 C 299.953125 421.945312 299.902344 423.90625 299.804688 425.867188 C 299.707031 427.828125 299.5625 429.785156 299.367188 431.738281 C 299.171875 433.691406 298.929688 435.640625 298.640625 437.582031 C 298.351562 439.523438 298.011719 441.457031 297.628906 443.378906 C 297.242188 445.304688 296.8125 447.21875 296.332031 449.125 C 295.855469 451.027344 295.332031 452.917969 294.757812 454.796875 C 294.1875 456.675781 293.570312 458.539062 292.910156 460.386719 C 292.246094 462.234375 291.539062 464.0625 290.785156 465.875 C 290.035156 467.691406 289.238281 469.484375 288.398438 471.257812 C 287.558594 473.03125 286.675781 474.785156 285.75 476.515625 C 284.824219 478.246094 283.855469 479.953125 282.84375 481.636719 C 281.835938 483.320312 280.785156 484.976562 279.695312 486.609375 C 278.601562 488.242188 277.472656 489.84375 276.300781 491.421875 C 275.132812 492.996094 273.925781 494.542969 272.679688 496.0625 C 271.433594 497.578125 270.152344 499.066406 268.835938 500.519531 C 267.515625 501.972656 266.164062 503.394531 264.773438 504.78125 C 263.386719 506.171875 261.964844 507.523438 260.511719 508.84375 C 259.054688 510.160156 257.570312 511.441406 256.054688 512.6875 C 254.535156 513.933594 252.988281 515.140625 251.414062 516.3125 C 249.835938 517.480469 248.230469 518.613281 246.601562 519.703125 C 244.96875 520.792969 243.3125 521.84375 241.628906 522.855469 C 239.945312 523.863281 238.238281 524.832031 236.507812 525.757812 C 234.773438 526.683594 233.023438 527.566406 231.25 528.40625 C 229.476562 529.246094 227.679688 530.042969 225.867188 530.796875 C 224.054688 531.546875 222.222656 532.253906 220.375 532.917969 C 218.527344 533.582031 216.664062 534.195312 214.789062 534.769531 C 212.910156 535.339844 211.019531 535.863281 209.113281 536.34375 C 207.210938 536.820312 205.296875 537.253906 203.371094 537.636719 C 201.445312 538.023438 199.511719 538.359375 197.570312 538.648438 C 195.628906 538.9375 193.683594 539.179688 191.730469 539.375 C 189.777344 539.570312 187.820312 539.714844 185.859375 539.8125 C 183.898438 539.914062 181.9375 539.960938 179.972656 539.964844 Z M 179.972656 337.066406 C 178.617188 337.066406 177.257812 337.101562 175.902344 337.167969 C 174.546875 337.234375 173.191406 337.335938 171.839844 337.46875 C 170.488281 337.601562 169.140625 337.765625 167.796875 337.964844 C 166.453125 338.164062 165.117188 338.398438 163.785156 338.664062 C 162.453125 338.925781 161.128906 339.226562 159.808594 339.554688 C 158.492188 339.886719 157.183594 340.246094 155.882812 340.640625 C 154.585938 341.035156 153.296875 341.460938 152.015625 341.917969 C 150.738281 342.378906 149.472656 342.867188 148.21875 343.386719 C 146.960938 343.90625 145.722656 344.457031 144.492188 345.035156 C 143.265625 345.617188 142.054688 346.226562 140.855469 346.867188 C 139.65625 347.507812 138.476562 348.175781 137.3125 348.875 C 136.144531 349.574219 135 350.300781 133.871094 351.054688 C 132.742188 351.808594 131.632812 352.59375 130.539062 353.402344 C 129.449219 354.210938 128.378906 355.046875 127.328125 355.90625 C 126.28125 356.769531 125.25 357.65625 124.246094 358.566406 C 123.238281 359.480469 122.257812 360.417969 121.296875 361.378906 C 120.335938 362.335938 119.398438 363.320312 118.488281 364.328125 C 117.574219 365.332031 116.6875 366.363281 115.828125 367.410156 C 114.964844 368.460938 114.132812 369.53125 113.320312 370.625 C 112.511719 371.714844 111.730469 372.824219 110.976562 373.953125 C 110.222656 375.082031 109.496094 376.230469 108.796875 377.394531 C 108.101562 378.558594 107.429688 379.742188 106.792969 380.941406 C 106.152344 382.136719 105.542969 383.351562 104.960938 384.578125 C 104.378906 385.804688 103.832031 387.046875 103.3125 388.300781 C 102.792969 389.558594 102.304688 390.824219 101.84375 392.101562 C 101.386719 393.382812 100.960938 394.671875 100.570312 395.96875 C 100.175781 397.269531 99.8125 398.578125 99.484375 399.894531 C 99.152344 401.214844 98.855469 402.539062 98.589844 403.871094 C 98.328125 405.203125 98.09375 406.539062 97.894531 407.882812 C 97.695312 409.226562 97.53125 410.574219 97.398438 411.925781 C 97.265625 413.277344 97.164062 414.632812 97.097656 415.988281 C 97.035156 417.34375 97 418.703125 97 420.0625 C 97 421.417969 97.035156 422.777344 97.101562 424.132812 C 97.167969 425.488281 97.269531 426.84375 97.402344 428.195312 C 97.535156 429.546875 97.703125 430.894531 97.902344 432.238281 C 98.101562 433.582031 98.332031 434.917969 98.597656 436.25 C 98.863281 437.582031 99.164062 438.90625 99.492188 440.222656 C 99.824219 441.542969 100.183594 442.851562 100.582031 444.148438 C 100.976562 445.449219 101.402344 446.738281 101.859375 448.015625 C 102.316406 449.296875 102.804688 450.5625 103.324219 451.816406 C 103.847656 453.070312 104.398438 454.3125 104.976562 455.539062 C 105.558594 456.765625 106.167969 457.980469 106.808594 459.175781 C 107.449219 460.375 108.121094 461.554688 108.820312 462.71875 C 109.515625 463.886719 110.242188 465.03125 111 466.160156 C 111.753906 467.289062 112.535156 468.398438 113.34375 469.492188 C 114.15625 470.582031 114.992188 471.652344 115.851562 472.699219 C 116.714844 473.75 117.601562 474.777344 118.515625 475.785156 C 119.425781 476.789062 120.363281 477.773438 121.324219 478.734375 C 122.285156 479.691406 123.269531 480.628906 124.273438 481.539062 C 125.28125 482.453125 126.308594 483.339844 127.359375 484.199219 C 128.410156 485.0625 129.480469 485.894531 130.570312 486.703125 C 131.664062 487.511719 132.773438 488.292969 133.902344 489.046875 C 135.03125 489.800781 136.179688 490.527344 137.34375 491.226562 C 138.511719 491.925781 139.691406 492.59375 140.890625 493.234375 C 142.085938 493.871094 143.300781 494.480469 144.527344 495.0625 C 145.757812 495.644531 146.996094 496.191406 148.253906 496.710938 C 149.507812 497.230469 150.773438 497.71875 152.054688 498.175781 C 153.332031 498.632812 154.621094 499.058594 155.921875 499.453125 C 157.222656 499.84375 158.53125 500.207031 159.847656 500.535156 C 161.164062 500.867188 162.492188 501.164062 163.824219 501.425781 C 165.15625 501.691406 166.492188 501.921875 167.835938 502.121094 C 169.179688 502.320312 170.527344 502.484375 171.878906 502.617188 C 173.230469 502.75 174.585938 502.851562 175.941406 502.917969 C 177.296875 502.980469 178.65625 503.015625 180.011719 503.015625 C 181.371094 503.015625 182.726562 502.980469 184.085938 502.914062 C 185.441406 502.84375 186.796875 502.746094 188.148438 502.609375 C 189.5 502.476562 190.84375 502.308594 192.1875 502.109375 C 193.53125 501.910156 194.871094 501.675781 196.203125 501.410156 C 197.535156 501.144531 198.859375 500.847656 200.175781 500.515625 C 201.492188 500.1875 202.800781 499.824219 204.101562 499.429688 C 205.398438 499.035156 206.6875 498.609375 207.96875 498.148438 C 209.246094 497.691406 210.511719 497.203125 211.765625 496.679688 C 213.019531 496.160156 214.261719 495.609375 215.488281 495.027344 C 216.71875 494.449219 217.929688 493.835938 219.128906 493.195312 C 220.324219 492.554688 221.503906 491.886719 222.667969 491.1875 C 223.835938 490.488281 224.980469 489.761719 226.109375 489.003906 C 227.238281 488.25 228.347656 487.46875 229.4375 486.65625 C 230.527344 485.847656 231.597656 485.011719 232.648438 484.148438 C 233.699219 483.289062 234.726562 482.402344 235.730469 481.488281 C 236.738281 480.574219 237.71875 479.636719 238.679688 478.675781 C 239.640625 477.714844 240.574219 476.734375 241.484375 475.726562 C 242.398438 474.71875 243.285156 473.691406 244.144531 472.640625 C 245.003906 471.589844 245.839844 470.519531 246.648438 469.425781 C 247.457031 468.335938 248.238281 467.226562 248.992188 466.097656 C 249.746094 464.964844 250.472656 463.820312 251.167969 462.652344 C 251.867188 461.488281 252.535156 460.304688 253.175781 459.109375 C 253.8125 457.910156 254.421875 456.695312 255.003906 455.46875 C 255.582031 454.242188 256.132812 453 256.652344 451.742188 C 257.171875 450.488281 257.660156 449.222656 258.113281 447.941406 C 258.570312 446.664062 258.996094 445.375 259.390625 444.074219 C 259.785156 442.773438 260.144531 441.464844 260.472656 440.148438 C 260.804688 438.832031 261.101562 437.503906 261.363281 436.171875 C 261.628906 434.839844 261.859375 433.503906 262.058594 432.160156 C 262.253906 430.816406 262.421875 429.46875 262.554688 428.117188 C 262.683594 426.765625 262.785156 425.410156 262.851562 424.054688 C 262.914062 422.699219 262.949219 421.339844 262.945312 419.984375 C 262.945312 418.625 262.910156 417.269531 262.84375 415.914062 C 262.773438 414.558594 262.671875 413.203125 262.539062 411.851562 C 262.402344 410.503906 262.238281 409.15625 262.035156 407.8125 C 261.835938 406.46875 261.601562 405.132812 261.335938 403.800781 C 261.070312 402.472656 260.773438 401.148438 260.441406 399.832031 C 260.109375 398.515625 259.746094 397.207031 259.351562 395.90625 C 258.957031 394.609375 258.53125 393.320312 258.074219 392.042969 C 257.613281 390.765625 257.125 389.5 256.605469 388.246094 C 256.085938 386.992188 255.535156 385.75 254.953125 384.523438 C 254.371094 383.296875 253.761719 382.085938 253.121094 380.886719 C 252.480469 379.691406 251.8125 378.511719 251.113281 377.347656 C 250.414062 376.183594 249.6875 375.035156 248.933594 373.90625 C 248.179688 372.78125 247.398438 371.671875 246.589844 370.582031 C 245.78125 369.488281 244.945312 368.421875 244.082031 367.371094 C 243.222656 366.320312 242.335938 365.292969 241.421875 364.289062 C 240.511719 363.28125 239.574219 362.300781 238.617188 361.339844 C 237.65625 360.378906 236.671875 359.445312 235.667969 358.53125 C 234.660156 357.621094 233.632812 356.734375 232.585938 355.875 C 231.535156 355.011719 230.464844 354.175781 229.375 353.367188 C 228.285156 352.558594 227.175781 351.777344 226.046875 351.023438 C 224.917969 350.269531 223.773438 349.542969 222.609375 348.84375 C 221.445312 348.144531 220.265625 347.476562 219.066406 346.835938 C 217.871094 346.195312 216.660156 345.585938 215.433594 345.003906 C 214.207031 344.421875 212.964844 343.871094 211.710938 343.351562 C 210.457031 342.832031 209.191406 342.34375 207.914062 341.882812 C 206.636719 341.425781 205.347656 341 204.046875 340.605469 C 202.75 340.207031 201.441406 339.847656 200.125 339.515625 C 198.808594 339.183594 197.484375 338.886719 196.15625 338.621094 C 194.824219 338.355469 193.484375 338.121094 192.144531 337.921875 C 190.800781 337.71875 189.453125 337.550781 188.105469 337.417969 C 186.753906 337.28125 185.398438 337.183594 184.042969 337.113281 C 182.6875 337.046875 181.332031 337.011719 179.972656 337.007812 Z M 179.972656 337.066406 " fill-opacity="1" fill-rule="nonzero"/></g><g clip-path="url(#9618025d19)"><path fill="#5ba9d0" d="M 419.9375 300 C 417.976562 300 416.011719 299.953125 414.050781 299.855469 C 412.089844 299.757812 410.132812 299.613281 408.179688 299.421875 C 406.222656 299.230469 404.277344 298.988281 402.332031 298.703125 C 400.390625 298.414062 398.457031 298.078125 396.53125 297.695312 C 394.605469 297.3125 392.691406 296.882812 390.785156 296.402344 C 388.878906 295.925781 386.988281 295.402344 385.109375 294.832031 C 383.230469 294.261719 381.367188 293.648438 379.519531 292.984375 C 377.667969 292.324219 375.835938 291.617188 374.023438 290.867188 C 372.210938 290.117188 370.414062 289.320312 368.640625 288.480469 C 366.863281 287.640625 365.109375 286.757812 363.378906 285.832031 C 361.648438 284.90625 359.941406 283.9375 358.253906 282.929688 C 356.570312 281.921875 354.914062 280.871094 353.28125 279.777344 C 351.648438 278.6875 350.042969 277.558594 348.464844 276.386719 C 346.886719 275.21875 345.339844 274.011719 343.824219 272.765625 C 342.304688 271.519531 340.820312 270.238281 339.363281 268.917969 C 337.910156 267.601562 336.488281 266.246094 335.097656 264.859375 C 333.710938 263.46875 332.355469 262.046875 331.039062 260.59375 C 329.71875 259.136719 328.4375 257.652344 327.191406 256.132812 C 325.945312 254.617188 324.738281 253.066406 323.566406 251.492188 C 322.398438 249.914062 321.269531 248.308594 320.175781 246.675781 C 319.085938 245.042969 318.035156 243.386719 317.027344 241.699219 C 316.015625 240.015625 315.050781 238.308594 314.125 236.578125 C 313.199219 234.84375 312.316406 233.089844 311.476562 231.316406 C 310.636719 229.542969 309.839844 227.746094 309.089844 225.933594 C 308.339844 224.117188 307.632812 222.289062 306.96875 220.4375 C 306.308594 218.589844 305.691406 216.726562 305.121094 214.847656 C 304.554688 212.96875 304.027344 211.074219 303.550781 209.171875 C 303.074219 207.265625 302.644531 205.351562 302.261719 203.425781 C 301.878906 201.5 301.542969 199.566406 301.253906 197.621094 C 300.96875 195.679688 300.726562 193.730469 300.535156 191.777344 C 300.339844 189.824219 300.195312 187.867188 300.101562 185.90625 C 300.003906 183.945312 299.957031 181.980469 299.957031 180.015625 C 299.957031 178.054688 300.003906 176.089844 300.101562 174.128906 C 300.195312 172.167969 300.339844 170.210938 300.535156 168.257812 C 300.726562 166.304688 300.96875 164.355469 301.253906 162.414062 C 301.542969 160.46875 301.878906 158.535156 302.261719 156.609375 C 302.644531 154.683594 303.074219 152.769531 303.550781 150.863281 C 304.027344 148.960938 304.554688 147.066406 305.121094 145.1875 C 305.691406 143.308594 306.308594 141.445312 306.96875 139.597656 C 307.632812 137.746094 308.339844 135.917969 309.089844 134.101562 C 309.839844 132.289062 310.636719 130.492188 311.476562 128.71875 C 312.316406 126.941406 313.199219 125.191406 314.125 123.457031 C 315.050781 121.726562 316.015625 120.019531 317.027344 118.335938 C 318.035156 116.648438 319.085938 114.992188 320.175781 113.359375 C 321.269531 111.726562 322.398438 110.121094 323.566406 108.542969 C 324.738281 106.964844 325.945312 105.417969 327.191406 103.902344 C 328.4375 102.382812 329.71875 100.898438 331.039062 99.441406 C 332.355469 97.988281 333.710938 96.566406 335.097656 95.175781 C 336.488281 93.789062 337.910156 92.433594 339.363281 91.117188 C 340.820312 89.796875 342.304688 88.515625 343.824219 87.269531 C 345.339844 86.023438 346.886719 84.816406 348.464844 83.648438 C 350.042969 82.476562 351.648438 81.347656 353.28125 80.253906 C 354.914062 79.164062 356.570312 78.113281 358.253906 77.105469 C 359.941406 76.09375 361.648438 75.128906 363.378906 74.203125 C 365.109375 73.277344 366.863281 72.394531 368.640625 71.554688 C 370.414062 70.714844 372.210938 69.917969 374.023438 69.167969 C 375.835938 68.417969 377.667969 67.710938 379.519531 67.046875 C 381.367188 66.386719 383.230469 65.769531 385.109375 65.203125 C 386.988281 64.632812 388.878906 64.109375 390.785156 63.628906 C 392.691406 63.152344 394.605469 62.722656 396.53125 62.339844 C 398.457031 61.957031 400.390625 61.621094 402.332031 61.332031 C 404.277344 61.046875 406.222656 60.804688 408.179688 60.613281 C 410.132812 60.421875 412.089844 60.277344 414.050781 60.179688 C 416.011719 60.082031 417.976562 60.035156 419.9375 60.035156 C 421.902344 60.035156 423.863281 60.082031 425.824219 60.179688 C 427.789062 60.277344 429.746094 60.421875 431.699219 60.613281 C 433.652344 60.804688 435.601562 61.046875 437.542969 61.332031 C 439.488281 61.621094 441.421875 61.957031 443.347656 62.339844 C 445.273438 62.722656 447.1875 63.152344 449.09375 63.628906 C 450.996094 64.109375 452.890625 64.632812 454.769531 65.203125 C 456.648438 65.769531 458.511719 66.386719 460.359375 67.046875 C 462.207031 67.710938 464.039062 68.417969 465.855469 69.167969 C 467.667969 69.917969 469.464844 70.714844 471.238281 71.554688 C 473.011719 72.394531 474.765625 73.277344 476.5 74.203125 C 478.230469 75.128906 479.9375 76.09375 481.621094 77.105469 C 483.304688 78.113281 484.964844 79.164062 486.597656 80.253906 C 488.230469 81.347656 489.835938 82.476562 491.414062 83.648438 C 492.988281 84.816406 494.539062 86.023438 496.054688 87.269531 C 497.574219 88.515625 499.058594 89.796875 500.515625 91.117188 C 501.96875 92.433594 503.390625 93.789062 504.78125 95.175781 C 506.167969 96.566406 507.519531 97.988281 508.839844 99.441406 C 510.160156 100.898438 511.441406 102.382812 512.6875 103.902344 C 513.933594 105.417969 515.140625 106.964844 516.308594 108.542969 C 517.480469 110.121094 518.609375 111.726562 519.699219 113.359375 C 520.792969 114.992188 521.84375 116.648438 522.851562 118.335938 C 523.859375 120.019531 524.828125 121.726562 525.753906 123.457031 C 526.679688 125.191406 527.5625 126.941406 528.402344 128.71875 C 529.242188 130.492188 530.035156 132.289062 530.789062 134.101562 C 531.539062 135.917969 532.246094 137.746094 532.90625 139.597656 C 533.570312 141.445312 534.183594 143.308594 534.753906 145.1875 C 535.324219 147.066406 535.847656 148.960938 536.324219 150.863281 C 536.804688 152.769531 537.234375 154.683594 537.617188 156.609375 C 538 158.535156 538.335938 160.46875 538.621094 162.414062 C 538.910156 164.355469 539.152344 166.304688 539.34375 168.257812 C 539.535156 170.210938 539.679688 172.167969 539.777344 174.128906 C 539.875 176.089844 539.921875 178.054688 539.921875 180.015625 C 539.917969 181.980469 539.867188 183.941406 539.769531 185.902344 C 539.671875 187.863281 539.527344 189.820312 539.332031 191.773438 C 539.136719 193.726562 538.894531 195.675781 538.605469 197.617188 C 538.316406 199.558594 537.976562 201.492188 537.59375 203.414062 C 537.207031 205.339844 536.777344 207.253906 536.300781 209.160156 C 535.820312 211.0625 535.296875 212.953125 534.722656 214.832031 C 534.152344 216.710938 533.535156 218.574219 532.875 220.421875 C 532.210938 222.269531 531.503906 224.097656 530.75 225.910156 C 530 227.726562 529.203125 229.519531 528.363281 231.292969 C 527.523438 233.066406 526.640625 234.820312 525.714844 236.550781 C 524.789062 238.28125 523.820312 239.988281 522.808594 241.671875 C 521.800781 243.355469 520.75 245.011719 519.660156 246.644531 C 518.566406 248.277344 517.4375 249.878906 516.269531 251.457031 C 515.097656 253.03125 513.890625 254.578125 512.644531 256.097656 C 511.398438 257.613281 510.117188 259.101562 508.800781 260.554688 C 507.480469 262.007812 506.128906 263.429688 504.738281 264.816406 C 503.351562 266.207031 501.929688 267.558594 500.476562 268.878906 C 499.019531 270.195312 497.535156 271.476562 496.019531 272.722656 C 494.5 273.96875 492.953125 275.175781 491.378906 276.347656 C 489.800781 277.515625 488.195312 278.644531 486.566406 279.738281 C 484.933594 280.828125 483.277344 281.878906 481.59375 282.886719 C 479.910156 283.898438 478.203125 284.867188 476.472656 285.792969 C 474.742188 286.71875 472.988281 287.601562 471.214844 288.441406 C 469.441406 289.28125 467.644531 290.078125 465.832031 290.832031 C 464.019531 291.582031 462.1875 292.289062 460.339844 292.953125 C 458.492188 293.613281 456.628906 294.230469 454.753906 294.804688 C 452.875 295.375 450.984375 295.898438 449.078125 296.378906 C 447.175781 296.855469 445.261719 297.289062 443.335938 297.671875 C 441.410156 298.054688 439.480469 298.394531 437.539062 298.683594 C 435.597656 298.972656 433.648438 299.214844 431.695312 299.410156 C 429.742188 299.605469 427.785156 299.75 425.824219 299.847656 C 423.863281 299.949219 421.902344 299.996094 419.9375 300 Z M 419.9375 97.101562 C 418.582031 97.101562 417.222656 97.136719 415.867188 97.203125 C 414.511719 97.269531 413.15625 97.371094 411.804688 97.503906 C 410.453125 97.636719 409.105469 97.800781 407.761719 98 C 406.417969 98.199219 405.082031 98.433594 403.75 98.699219 C 402.417969 98.960938 401.09375 99.261719 399.773438 99.589844 C 398.457031 99.921875 397.148438 100.28125 395.847656 100.675781 C 394.550781 101.070312 393.261719 101.496094 391.980469 101.953125 C 390.703125 102.410156 389.4375 102.902344 388.183594 103.421875 C 386.925781 103.941406 385.6875 104.492188 384.457031 105.070312 C 383.230469 105.652344 382.019531 106.261719 380.820312 106.902344 C 379.621094 107.542969 378.441406 108.210938 377.277344 108.910156 C 376.113281 109.609375 374.964844 110.335938 373.835938 111.089844 C 372.707031 111.84375 371.597656 112.625 370.503906 113.4375 C 369.414062 114.246094 368.34375 115.082031 367.292969 115.941406 C 366.246094 116.804688 365.21875 117.691406 364.210938 118.601562 C 363.203125 119.515625 362.222656 120.453125 361.261719 121.410156 C 360.300781 122.371094 359.363281 123.355469 358.453125 124.363281 C 357.539062 125.367188 356.652344 126.398438 355.792969 127.445312 C 354.929688 128.496094 354.097656 129.566406 353.289062 130.660156 C 352.476562 131.75 351.695312 132.859375 350.941406 133.988281 C 350.1875 135.117188 349.460938 136.265625 348.765625 137.429688 C 348.066406 138.59375 347.398438 139.777344 346.757812 140.972656 C 346.117188 142.171875 345.507812 143.386719 344.925781 144.613281 C 344.34375 145.839844 343.796875 147.082031 343.277344 148.335938 C 342.757812 149.59375 342.269531 150.859375 341.8125 152.136719 C 341.351562 153.417969 340.929688 154.707031 340.535156 156.003906 C 340.140625 157.304688 339.777344 158.613281 339.449219 159.929688 C 339.117188 161.25 338.820312 162.574219 338.554688 163.90625 C 338.292969 165.238281 338.058594 166.574219 337.859375 167.917969 C 337.664062 169.261719 337.496094 170.609375 337.363281 171.960938 C 337.230469 173.3125 337.132812 174.667969 337.066406 176.023438 C 337 177.378906 336.964844 178.738281 336.964844 180.09375 C 336.964844 181.453125 337 182.8125 337.066406 184.167969 C 337.132812 185.523438 337.234375 186.878906 337.367188 188.230469 C 337.5 189.582031 337.667969 190.929688 337.867188 192.273438 C 338.066406 193.613281 338.300781 194.953125 338.5625 196.285156 C 338.828125 197.617188 339.128906 198.941406 339.457031 200.257812 C 339.789062 201.574219 340.152344 202.882812 340.546875 204.183594 C 340.941406 205.484375 341.367188 206.773438 341.824219 208.050781 C 342.28125 209.328125 342.769531 210.597656 343.289062 211.851562 C 343.8125 213.105469 344.363281 214.347656 344.941406 215.574219 C 345.523438 216.800781 346.132812 218.015625 346.773438 219.210938 C 347.414062 220.410156 348.085938 221.589844 348.785156 222.753906 C 349.484375 223.921875 350.210938 225.066406 350.964844 226.195312 C 351.71875 227.324219 352.5 228.433594 353.308594 229.523438 C 354.121094 230.617188 354.957031 231.6875 355.816406 232.734375 C 356.679688 233.785156 357.566406 234.8125 358.480469 235.820312 C 359.390625 236.824219 360.328125 237.808594 361.289062 238.769531 C 362.25 239.726562 363.234375 240.664062 364.238281 241.574219 C 365.246094 242.488281 366.273438 243.375 367.324219 244.234375 C 368.375 245.097656 369.445312 245.929688 370.535156 246.738281 C 371.628906 247.546875 372.738281 248.328125 373.867188 249.082031 C 374.996094 249.835938 376.144531 250.5625 377.308594 251.261719 C 378.476562 251.957031 379.65625 252.628906 380.855469 253.265625 C 382.050781 253.90625 383.265625 254.515625 384.492188 255.097656 C 385.722656 255.675781 386.964844 256.226562 388.21875 256.746094 C 389.472656 257.265625 390.738281 257.753906 392.019531 258.210938 C 393.296875 258.667969 394.585938 259.09375 395.886719 259.488281 C 397.1875 259.878906 398.496094 260.242188 399.8125 260.570312 C 401.128906 260.902344 402.457031 261.199219 403.789062 261.460938 C 405.121094 261.726562 406.457031 261.957031 407.800781 262.15625 C 409.144531 262.355469 410.492188 262.519531 411.84375 262.652344 C 413.195312 262.785156 414.550781 262.886719 415.90625 262.953125 C 417.261719 263.015625 418.621094 263.050781 419.976562 263.050781 C 421.335938 263.046875 422.695312 263.015625 424.050781 262.949219 C 425.40625 262.878906 426.761719 262.78125 428.113281 262.644531 C 429.464844 262.511719 430.8125 262.34375 432.152344 262.144531 C 433.496094 261.945312 434.835938 261.710938 436.167969 261.445312 C 437.5 261.179688 438.824219 260.882812 440.140625 260.550781 C 441.457031 260.222656 442.765625 259.859375 444.066406 259.464844 C 445.363281 259.070312 446.652344 258.644531 447.933594 258.183594 C 449.210938 257.726562 450.476562 257.238281 451.730469 256.714844 C 452.988281 256.195312 454.226562 255.644531 455.453125 255.0625 C 456.683594 254.484375 457.894531 253.871094 459.09375 253.230469 C 460.289062 252.589844 461.46875 251.917969 462.636719 251.222656 C 463.800781 250.523438 464.945312 249.796875 466.074219 249.039062 C 467.203125 248.285156 468.3125 247.503906 469.402344 246.691406 C 470.496094 245.882812 471.5625 245.046875 472.613281 244.183594 C 473.664062 243.324219 474.691406 242.433594 475.695312 241.523438 C 476.703125 240.609375 477.683594 239.671875 478.644531 238.710938 C 479.605469 237.75 480.539062 236.769531 481.453125 235.761719 C 482.363281 234.753906 483.25 233.726562 484.109375 232.675781 C 484.972656 231.625 485.804688 230.554688 486.613281 229.460938 C 487.421875 228.371094 488.203125 227.261719 488.957031 226.132812 C 489.710938 225 490.4375 223.855469 491.132812 222.6875 C 491.832031 221.523438 492.5 220.339844 493.140625 219.144531 C 493.777344 217.945312 494.390625 216.730469 494.96875 215.503906 C 495.546875 214.277344 496.097656 213.035156 496.617188 211.777344 C 497.136719 210.523438 497.625 209.257812 498.082031 207.976562 C 498.535156 206.699219 498.960938 205.410156 499.355469 204.109375 C 499.75 202.808594 500.109375 201.5 500.4375 200.183594 C 500.769531 198.867188 501.066406 197.539062 501.328125 196.207031 C 501.59375 194.875 501.824219 193.539062 502.023438 192.195312 C 502.222656 190.851562 502.386719 189.503906 502.519531 188.152344 C 502.652344 186.800781 502.75 185.445312 502.816406 184.089844 C 502.878906 182.734375 502.914062 181.375 502.914062 180.015625 C 502.910156 178.660156 502.875 177.304688 502.808594 175.949219 C 502.738281 174.589844 502.636719 173.238281 502.503906 171.886719 C 502.371094 170.535156 502.203125 169.191406 502 167.847656 C 501.800781 166.503906 501.566406 165.167969 501.300781 163.835938 C 501.035156 162.503906 500.738281 161.183594 500.40625 159.867188 C 500.074219 158.550781 499.710938 157.242188 499.316406 155.941406 C 498.921875 154.644531 498.496094 153.355469 498.039062 152.078125 C 497.578125 150.800781 497.089844 149.535156 496.570312 148.28125 C 496.050781 147.027344 495.5 145.785156 494.917969 144.558594 C 494.335938 143.332031 493.726562 142.121094 493.085938 140.921875 C 492.445312 139.726562 491.777344 138.546875 491.078125 137.382812 C 490.378906 136.21875 489.652344 135.070312 488.898438 133.941406 C 488.144531 132.816406 487.363281 131.707031 486.554688 130.613281 C 485.746094 129.523438 484.910156 128.457031 484.046875 127.40625 C 483.1875 126.355469 482.300781 125.328125 481.390625 124.324219 C 480.476562 123.316406 479.542969 122.335938 478.582031 121.375 C 477.621094 120.414062 476.636719 119.480469 475.632812 118.566406 C 474.628906 117.65625 473.597656 116.769531 472.550781 115.90625 C 471.5 115.046875 470.429688 114.210938 469.339844 113.402344 C 468.25 112.59375 467.140625 111.8125 466.011719 111.058594 C 464.886719 110.304688 463.738281 109.578125 462.574219 108.878906 C 461.410156 108.179688 460.230469 107.511719 459.03125 106.871094 C 457.835938 106.230469 456.625 105.617188 455.398438 105.039062 C 454.171875 104.457031 452.929688 103.90625 451.675781 103.386719 C 450.421875 102.867188 449.15625 102.375 447.878906 101.917969 C 446.601562 101.460938 445.3125 101.035156 444.015625 100.640625 C 442.714844 100.242188 441.40625 99.882812 440.089844 99.550781 C 438.773438 99.21875 437.449219 98.921875 436.121094 98.65625 C 434.789062 98.386719 433.453125 98.15625 432.109375 97.953125 C 430.765625 97.753906 429.417969 97.585938 428.070312 97.453125 C 426.71875 97.316406 425.363281 97.21875 424.007812 97.148438 C 422.652344 97.082031 421.296875 97.046875 419.9375 97.042969 Z M 419.9375 97.101562 " fill-opacity="1" fill-rule="nonzero"/></g><g clip-path="url(#e944a1b93c)"><path fill="#5ba9d0" d="M 419.9375 539.964844 C 417.976562 539.964844 416.011719 539.917969 414.050781 539.820312 C 412.089844 539.722656 410.132812 539.578125 408.179688 539.386719 C 406.222656 539.195312 404.277344 538.953125 402.332031 538.667969 C 400.390625 538.378906 398.457031 538.042969 396.53125 537.660156 C 394.605469 537.277344 392.691406 536.847656 390.785156 536.371094 C 388.878906 535.890625 386.988281 535.367188 385.109375 534.796875 C 383.230469 534.230469 381.367188 533.613281 379.519531 532.953125 C 377.667969 532.289062 375.835938 531.582031 374.023438 530.832031 C 372.210938 530.082031 370.414062 529.285156 368.640625 528.445312 C 366.863281 527.605469 365.109375 526.722656 363.378906 525.796875 C 361.648438 524.871094 359.941406 523.90625 358.253906 522.894531 C 356.570312 521.886719 354.914062 520.835938 353.28125 519.746094 C 351.648438 518.652344 350.042969 517.523438 348.464844 516.351562 C 346.886719 515.183594 345.339844 513.976562 343.824219 512.730469 C 342.304688 511.484375 340.820312 510.203125 339.363281 508.882812 C 337.910156 507.566406 336.488281 506.210938 335.097656 504.824219 C 333.710938 503.433594 332.355469 502.011719 331.039062 500.558594 C 329.71875 499.101562 328.4375 497.617188 327.191406 496.097656 C 325.945312 494.582031 324.738281 493.035156 323.566406 491.457031 C 322.398438 489.878906 321.269531 488.273438 320.175781 486.640625 C 319.085938 485.007812 318.035156 483.351562 317.027344 481.664062 C 316.015625 479.980469 315.050781 478.273438 314.125 476.542969 C 313.199219 474.808594 312.316406 473.058594 311.476562 471.28125 C 310.636719 469.507812 309.839844 467.710938 309.089844 465.898438 C 308.339844 464.082031 307.632812 462.253906 306.96875 460.402344 C 306.308594 458.554688 305.691406 456.691406 305.121094 454.8125 C 304.554688 452.933594 304.027344 451.039062 303.550781 449.136719 C 303.074219 447.230469 302.644531 445.316406 302.261719 443.390625 C 301.878906 441.464844 301.542969 439.53125 301.253906 437.585938 C 300.96875 435.644531 300.726562 433.695312 300.535156 431.742188 C 300.339844 429.789062 300.195312 427.832031 300.101562 425.871094 C 300.003906 423.910156 299.957031 421.945312 299.957031 419.984375 C 299.957031 418.019531 300.003906 416.054688 300.101562 414.09375 C 300.195312 412.132812 300.339844 410.175781 300.535156 408.222656 C 300.726562 406.269531 300.96875 404.320312 301.253906 402.378906 C 301.542969 400.433594 301.878906 398.5 302.261719 396.574219 C 302.644531 394.648438 303.074219 392.734375 303.550781 390.828125 C 304.027344 388.925781 304.554688 387.03125 305.121094 385.152344 C 305.691406 383.273438 306.308594 381.410156 306.96875 379.5625 C 307.632812 377.710938 308.339844 375.882812 309.089844 374.066406 C 309.839844 372.253906 310.636719 370.457031 311.476562 368.683594 C 312.316406 366.910156 313.199219 365.15625 314.125 363.421875 C 315.050781 361.691406 316.015625 359.984375 317.027344 358.300781 C 318.035156 356.613281 319.085938 354.957031 320.175781 353.324219 C 321.269531 351.691406 322.398438 350.085938 323.566406 348.507812 C 324.738281 346.933594 325.945312 345.382812 327.191406 343.867188 C 328.4375 342.347656 329.71875 340.863281 331.039062 339.40625 C 332.355469 337.953125 333.710938 336.53125 335.097656 335.140625 C 336.488281 333.753906 337.910156 332.398438 339.363281 331.082031 C 340.820312 329.761719 342.304688 328.480469 343.824219 327.234375 C 345.339844 325.988281 346.886719 324.78125 348.464844 323.613281 C 350.042969 322.441406 351.648438 321.3125 353.28125 320.222656 C 354.914062 319.128906 356.570312 318.078125 358.253906 317.070312 C 359.941406 316.0625 361.648438 315.09375 363.378906 314.167969 C 365.109375 313.242188 366.863281 312.359375 368.640625 311.519531 C 370.414062 310.679688 372.210938 309.882812 374.023438 309.132812 C 375.835938 308.382812 377.667969 307.675781 379.519531 307.015625 C 381.367188 306.351562 383.230469 305.738281 385.109375 305.167969 C 386.988281 304.597656 388.878906 304.074219 390.785156 303.597656 C 392.691406 303.117188 394.605469 302.6875 396.53125 302.304688 C 398.457031 301.921875 400.390625 301.585938 402.332031 301.296875 C 404.277344 301.011719 406.222656 300.769531 408.179688 300.578125 C 410.132812 300.386719 412.089844 300.242188 414.050781 300.144531 C 416.011719 300.046875 417.976562 300 419.9375 300 C 421.902344 300 423.863281 300.046875 425.824219 300.144531 C 427.789062 300.242188 429.746094 300.386719 431.699219 300.578125 C 433.652344 300.769531 435.601562 301.011719 437.542969 301.296875 C 439.488281 301.585938 441.421875 301.921875 443.347656 302.304688 C 445.273438 302.6875 447.1875 303.117188 449.09375 303.597656 C 450.996094 304.074219 452.890625 304.597656 454.769531 305.167969 C 456.648438 305.738281 458.511719 306.351562 460.359375 307.015625 C 462.207031 307.675781 464.039062 308.382812 465.855469 309.132812 C 467.667969 309.882812 469.464844 310.679688 471.238281 311.519531 C 473.011719 312.359375 474.765625 313.242188 476.5 314.167969 C 478.230469 315.09375 479.9375 316.0625 481.621094 317.070312 C 483.304688 318.078125 484.964844 319.128906 486.597656 320.222656 C 488.230469 321.3125 489.835938 322.441406 491.414062 323.613281 C 492.988281 324.78125 494.539062 325.988281 496.054688 327.234375 C 497.574219 328.480469 499.058594 329.761719 500.515625 331.082031 C 501.96875 332.398438 503.390625 333.753906 504.78125 335.140625 C 506.167969 336.53125 507.519531 337.953125 508.839844 339.40625 C 510.160156 340.863281 511.441406 342.347656 512.6875 343.867188 C 513.933594 345.382812 515.140625 346.933594 516.308594 348.507812 C 517.480469 350.085938 518.609375 351.691406 519.699219 353.324219 C 520.792969 354.957031 521.84375 356.613281 522.851562 358.300781 C 523.859375 359.984375 524.828125 361.691406 525.753906 363.421875 C 526.679688 365.15625 527.5625 366.910156 528.402344 368.683594 C 529.242188 370.457031 530.035156 372.253906 530.789062 374.066406 C 531.539062 375.882812 532.246094 377.710938 532.90625 379.5625 C 533.570312 381.410156 534.183594 383.273438 534.753906 385.152344 C 535.324219 387.03125 535.847656 388.925781 536.324219 390.828125 C 536.804688 392.734375 537.234375 394.648438 537.617188 396.574219 C 538 398.5 538.335938 400.433594 538.621094 402.378906 C 538.910156 404.320312 539.152344 406.269531 539.34375 408.222656 C 539.535156 410.175781 539.679688 412.132812 539.777344 414.09375 C 539.875 416.054688 539.921875 418.019531 539.921875 419.984375 C 539.917969 421.945312 539.867188 423.90625 539.769531 425.867188 C 539.671875 427.828125 539.527344 429.785156 539.332031 431.738281 C 539.136719 433.691406 538.894531 435.640625 538.605469 437.582031 C 538.316406 439.523438 537.976562 441.457031 537.59375 443.378906 C 537.207031 445.304688 536.777344 447.21875 536.300781 449.125 C 535.820312 451.027344 535.296875 452.917969 534.722656 454.796875 C 534.152344 456.675781 533.535156 458.539062 532.875 460.386719 C 532.210938 462.234375 531.503906 464.0625 530.75 465.875 C 530 467.691406 529.203125 469.484375 528.363281 471.257812 C 527.523438 473.03125 526.640625 474.785156 525.714844 476.515625 C 524.789062 478.246094 523.820312 479.953125 522.808594 481.636719 C 521.800781 483.320312 520.75 484.976562 519.660156 486.609375 C 518.566406 488.242188 517.4375 489.84375 516.269531 491.421875 C 515.097656 492.996094 513.890625 494.542969 512.644531 496.0625 C 511.398438 497.578125 510.117188 499.066406 508.800781 500.519531 C 507.480469 501.972656 506.128906 503.394531 504.738281 504.78125 C 503.351562 506.171875 501.929688 507.523438 500.476562 508.84375 C 499.019531 510.160156 497.535156 511.441406 496.019531 512.6875 C 494.5 513.933594 492.953125 515.140625 491.378906 516.3125 C 489.800781 517.480469 488.195312 518.613281 486.566406 519.703125 C 484.933594 520.792969 483.277344 521.84375 481.59375 522.855469 C 479.910156 523.863281 478.203125 524.832031 476.472656 525.757812 C 474.742188 526.683594 472.988281 527.566406 471.214844 528.40625 C 469.441406 529.246094 467.644531 530.042969 465.832031 530.796875 C 464.019531 531.546875 462.1875 532.253906 460.339844 532.917969 C 458.492188 533.582031 456.628906 534.195312 454.753906 534.769531 C 452.875 535.339844 450.984375 535.863281 449.078125 536.34375 C 447.175781 536.820312 445.261719 537.253906 443.335938 537.636719 C 441.410156 538.023438 439.480469 538.359375 437.539062 538.648438 C 435.597656 538.9375 433.648438 539.179688 431.695312 539.375 C 429.742188 539.570312 427.785156 539.714844 425.824219 539.8125 C 423.863281 539.914062 421.902344 539.960938 419.9375 539.964844 Z M 419.9375 337.066406 C 418.582031 337.066406 417.222656 337.101562 415.867188 337.167969 C 414.511719 337.234375 413.15625 337.335938 411.804688 337.46875 C 410.453125 337.601562 409.105469 337.765625 407.761719 337.964844 C 406.417969 338.164062 405.082031 338.398438 403.75 338.664062 C 402.417969 338.925781 401.09375 339.226562 399.773438 339.554688 C 398.457031 339.886719 397.148438 340.246094 395.847656 340.640625 C 394.550781 341.035156 393.261719 341.460938 391.980469 341.917969 C 390.703125 342.378906 389.4375 342.867188 388.183594 343.386719 C 386.925781 343.90625 385.6875 344.457031 384.457031 345.035156 C 383.230469 345.617188 382.019531 346.226562 380.820312 346.867188 C 379.621094 347.507812 378.441406 348.175781 377.277344 348.875 C 376.113281 349.574219 374.964844 350.300781 373.835938 351.054688 C 372.707031 351.808594 371.597656 352.59375 370.503906 353.402344 C 369.414062 354.210938 368.34375 355.046875 367.292969 355.90625 C 366.246094 356.769531 365.21875 357.65625 364.210938 358.566406 C 363.203125 359.480469 362.222656 360.417969 361.261719 361.378906 C 360.300781 362.335938 359.363281 363.320312 358.453125 364.328125 C 357.539062 365.332031 356.652344 366.363281 355.792969 367.410156 C 354.929688 368.460938 354.097656 369.53125 353.289062 370.625 C 352.476562 371.714844 351.695312 372.824219 350.941406 373.953125 C 350.1875 375.082031 349.460938 376.230469 348.765625 377.394531 C 348.066406 378.558594 347.398438 379.742188 346.757812 380.941406 C 346.117188 382.136719 345.507812 383.351562 344.925781 384.578125 C 344.34375 385.804688 343.796875 387.046875 343.277344 388.300781 C 342.757812 389.558594 342.269531 390.824219 341.8125 392.101562 C 341.351562 393.382812 340.929688 394.671875 340.535156 395.96875 C 340.140625 397.269531 339.777344 398.578125 339.449219 399.894531 C 339.117188 401.214844 338.820312 402.539062 338.554688 403.871094 C 338.292969 405.203125 338.058594 406.539062 337.859375 407.882812 C 337.664062 409.226562 337.496094 410.574219 337.363281 411.925781 C 337.230469 413.277344 337.132812 414.632812 337.066406 415.988281 C 337 417.34375 336.964844 418.703125 336.964844 420.0625 C 336.964844 421.417969 337 422.777344 337.066406 424.132812 C 337.132812 425.488281 337.234375 426.84375 337.367188 428.195312 C 337.5 429.546875 337.667969 430.894531 337.867188 432.238281 C 338.066406 433.582031 338.300781 434.917969 338.5625 436.25 C 338.828125 437.582031 339.128906 438.90625 339.457031 440.222656 C 339.789062 441.542969 340.152344 442.851562 340.546875 444.148438 C 340.941406 445.449219 341.367188 446.738281 341.824219 448.015625 C 342.28125 449.296875 342.769531 450.5625 343.289062 451.816406 C 343.8125 453.070312 344.363281 454.3125 344.941406 455.539062 C 345.523438 456.765625 346.132812 457.980469 346.773438 459.175781 C 347.414062 460.375 348.085938 461.554688 348.785156 462.71875 C 349.484375 463.886719 350.210938 465.03125 350.964844 466.160156 C 351.71875 467.289062 352.5 468.398438 353.308594 469.492188 C 354.121094 470.582031 354.957031 471.652344 355.816406 472.699219 C 356.679688 473.75 357.566406 474.777344 358.480469 475.785156 C 359.390625 476.789062 360.328125 477.773438 361.289062 478.734375 C 362.25 479.691406 363.234375 480.628906 364.238281 481.539062 C 365.246094 482.453125 366.273438 483.339844 367.324219 484.199219 C 368.375 485.0625 369.445312 485.894531 370.535156 486.703125 C 371.628906 487.511719 372.738281 488.292969 373.867188 489.046875 C 374.996094 489.800781 376.144531 490.527344 377.308594 491.226562 C 378.476562 491.925781 379.65625 492.59375 380.855469 493.234375 C 382.050781 493.871094 383.265625 494.480469 384.492188 495.0625 C 385.722656 495.644531 386.964844 496.191406 388.21875 496.710938 C 389.472656 497.230469 390.738281 497.71875 392.019531 498.175781 C 393.296875 498.632812 394.585938 499.058594 395.886719 499.453125 C 397.1875 499.84375 398.496094 500.207031 399.8125 500.535156 C 401.128906 500.867188 402.457031 501.164062 403.789062 501.425781 C 405.121094 501.691406 406.457031 501.921875 407.800781 502.121094 C 409.144531 502.320312 410.492188 502.484375 411.84375 502.617188 C 413.195312 502.75 414.550781 502.851562 415.90625 502.917969 C 417.261719 502.980469 418.621094 503.015625 419.976562 503.015625 C 421.335938 503.015625 422.695312 502.980469 424.050781 502.914062 C 425.40625 502.84375 426.761719 502.746094 428.113281 502.609375 C 429.464844 502.476562 430.8125 502.308594 432.152344 502.109375 C 433.496094 501.910156 434.835938 501.675781 436.167969 501.410156 C 437.5 501.144531 438.824219 500.847656 440.140625 500.515625 C 441.457031 500.1875 442.765625 499.824219 444.066406 499.429688 C 445.363281 499.035156 446.652344 498.609375 447.933594 498.148438 C 449.210938 497.691406 450.476562 497.203125 451.730469 496.679688 C 452.988281 496.160156 454.226562 495.609375 455.453125 495.027344 C 456.683594 494.449219 457.894531 493.835938 459.09375 493.195312 C 460.289062 492.554688 461.46875 491.886719 462.636719 491.1875 C 463.800781 490.488281 464.945312 489.761719 466.074219 489.003906 C 467.203125 488.25 468.3125 487.46875 469.402344 486.65625 C 470.496094 485.847656 471.5625 485.011719 472.613281 484.148438 C 473.664062 483.289062 474.691406 482.402344 475.695312 481.488281 C 476.703125 480.574219 477.683594 479.636719 478.644531 478.675781 C 479.605469 477.714844 480.539062 476.734375 481.453125 475.726562 C 482.363281 474.71875 483.25 473.691406 484.109375 472.640625 C 484.972656 471.589844 485.804688 470.519531 486.613281 469.425781 C 487.421875 468.335938 488.203125 467.226562 488.957031 466.097656 C 489.710938 464.964844 490.4375 463.820312 491.132812 462.652344 C 491.832031 461.488281 492.5 460.304688 493.140625 459.109375 C 493.777344 457.910156 494.390625 456.695312 494.96875 455.46875 C 495.546875 454.242188 496.097656 453 496.617188 451.742188 C 497.136719 450.488281 497.625 449.222656 498.082031 447.941406 C 498.535156 446.664062 498.960938 445.375 499.355469 444.074219 C 499.75 442.773438 500.109375 441.464844 500.4375 440.148438 C 500.769531 438.832031 501.066406 437.503906 501.328125 436.171875 C 501.59375 434.839844 501.824219 433.503906 502.023438 432.160156 C 502.222656 430.816406 502.386719 429.46875 502.519531 428.117188 C 502.652344 426.765625 502.75 425.410156 502.816406 424.054688 C 502.878906 422.699219 502.914062 421.339844 502.914062 419.984375 C 502.910156 418.625 502.875 417.269531 502.808594 415.914062 C 502.738281 414.558594 502.636719 413.203125 502.503906 411.851562 C 502.371094 410.503906 502.203125 409.15625 502 407.8125 C 501.800781 406.46875 501.566406 405.132812 501.300781 403.800781 C 501.035156 402.472656 500.738281 401.148438 500.40625 399.832031 C 500.074219 398.515625 499.710938 397.207031 499.316406 395.90625 C 498.921875 394.609375 498.496094 393.320312 498.039062 392.042969 C 497.578125 390.765625 497.089844 389.5 496.570312 388.246094 C 496.050781 386.992188 495.5 385.75 494.917969 384.523438 C 494.335938 383.296875 493.726562 382.085938 493.085938 380.886719 C 492.445312 379.691406 491.777344 378.511719 491.078125 377.347656 C 490.378906 376.183594 489.652344 375.035156 488.898438 373.90625 C 488.144531 372.78125 487.363281 371.671875 486.554688 370.582031 C 485.746094 369.488281 484.910156 368.421875 484.046875 367.371094 C 483.1875 366.320312 482.300781 365.292969 481.390625 364.289062 C 480.476562 363.28125 479.542969 362.300781 478.582031 361.339844 C 477.621094 360.378906 476.636719 359.445312 475.632812 358.53125 C 474.628906 357.621094 473.597656 356.734375 472.550781 355.875 C 471.5 355.011719 470.429688 354.175781 469.339844 353.367188 C 468.25 352.558594 467.140625 351.777344 466.011719 351.023438 C 464.886719 350.269531 463.738281 349.542969 462.574219 348.84375 C 461.410156 348.144531 460.230469 347.476562 459.03125 346.835938 C 457.835938 346.195312 456.625 345.585938 455.398438 345.003906 C 454.171875 344.421875 452.929688 343.871094 451.675781 343.351562 C 450.421875 342.832031 449.15625 342.34375 447.878906 341.882812 C 446.601562 341.425781 445.3125 341 444.015625 340.605469 C 442.714844 340.207031 441.40625 339.847656 440.089844 339.515625 C 438.773438 339.183594 437.449219 338.886719 436.121094 338.621094 C 434.789062 338.355469 433.453125 338.121094 432.109375 337.921875 C 430.765625 337.71875 429.417969 337.550781 428.070312 337.417969 C 426.71875 337.28125 425.363281 337.183594 424.007812 337.113281 C 422.652344 337.046875 421.296875 337.011719 419.9375 337.007812 Z M 419.9375 337.066406 " fill-opacity="1" fill-rule="nonzero"/></g><g clip-path="url(#d18cd1da00)"><g clip-path="url(#fde16f8621)"><g transform="matrix(1, 0, 0, 1, 487, 223)"><g clip-path="url(#0f35619e06)"><g clip-path="url(#537dd8b20b)"><g clip-path="url(#1f8b154a48)"><path fill="#5ba9d0" d="M 0.0859375 38.265625 L 28.722656 0.890625 L 140.410156 86.460938 L 111.777344 123.835938 Z M 0.0859375 38.265625 " fill-opacity="1" fill-rule="nonzero"/></g></g></g></g></g></g></svg>