<svg xmlns="http://www.w3.org/2000/svg" xmlns:xlink="http://www.w3.org/1999/xlink" width="1100" zoomAndPan="magnify" viewBox="0 0 824.88 599.999999" height="800" preserveAspectRatio="xMidYMid meet" version="1.0"><defs><clipPath id="3955f51b49"><path d="M 0 0.0429688 L 824.761719 0.0429688 L 824.761719 599.957031 L 0 599.957031 Z M 0 0.0429688 " clip-rule="nonzero"/></clipPath><clipPath id="c11091f262"><path d="M 0 0.0429688 L 824.761719 0.0429688 L 824.761719 599.957031 L 0 599.957031 Z M 0 0.0429688 " clip-rule="nonzero"/></clipPath><clipPath id="ea94eade0c"><rect x="0" width="825" y="0" height="600"/></clipPath><clipPath id="19d6d6980b"><path d="M 0 394.859375 L 206.21875 394.859375 L 206.21875 599.957031 L 0 599.957031 Z M 0 394.859375 " clip-rule="nonzero"/></clipPath><clipPath id="82d85f3a6a"><path d="M 0 189.765625 L 206.21875 189.765625 L 206.21875 395 L 0 395 Z M 0 189.765625 " clip-rule="nonzero"/></clipPath><clipPath id="94c84adb8e"><path d="M 0 86.96875 L 206.21875 86.96875 L 206.21875 189.703125 L 0 189.703125 Z M 0 86.96875 " clip-rule="nonzero"/></clipPath><clipPath id="fd34b26961"><path d="M 206.21875 394.859375 L 412.441406 394.859375 L 412.441406 599.957031 L 206.21875 599.957031 Z M 206.21875 394.859375 " clip-rule="nonzero"/></clipPath><clipPath id="55b945e12d"><path d="M 206.21875 189.765625 L 412.441406 189.765625 L 412.441406 395 L 206.21875 395 Z M 206.21875 189.765625 " clip-rule="nonzero"/></clipPath><clipPath id="d29987c657"><path d="M 412.441406 394.859375 L 618.660156 394.859375 L 618.660156 599.957031 L 412.441406 599.957031 Z M 412.441406 394.859375 " clip-rule="nonzero"/></clipPath><clipPath id="75d19440ac"><path d="M 412.441406 189.765625 L 618.660156 189.765625 L 618.660156 395 L 412.441406 395 Z M 412.441406 189.765625 " clip-rule="nonzero"/></clipPath><clipPath id="53c020a2a9"><path d="M 618.660156 394.859375 L 824.761719 394.859375 L 824.761719 599.957031 L 618.660156 599.957031 Z M 618.660156 394.859375 " clip-rule="nonzero"/></clipPath><clipPath id="a487f68643"><path d="M 618.660156 189.765625 L 824.761719 189.765625 L 824.761719 395 L 618.660156 395 Z M 618.660156 189.765625 " clip-rule="nonzero"/></clipPath><clipPath id="87dfabaa63"><path d="M 412.441406 86.96875 L 618.660156 86.96875 L 618.660156 189.703125 L 412.441406 189.703125 Z M 412.441406 86.96875 " clip-rule="nonzero"/></clipPath></defs><g clip-path="url(#3955f51b49)"><path fill="#ffffff" d="M 0 0.0429688 L 824.878906 0.0429688 L 824.878906 599.957031 L 0 599.957031 Z M 0 0.0429688 " fill-opacity="1" fill-rule="nonzero"/><path fill="#ffffff" d="M 0 0.0429688 L 824.878906 0.0429688 L 824.878906 599.957031 L 0 599.957031 Z M 0 0.0429688 " fill-opacity="1" fill-rule="nonzero"/><g transform="matrix(1, 0, 0, 1, 0, -0.000000000000171793)"><g clip-path="url(#ea94eade0c)"><g clip-path="url(#c11091f262)"><path fill="#ffe09a" d="M 0 0.0429688 L 824.878906 0.0429688 L 824.878906 599.957031 L 0 599.957031 Z M 0 0.0429688 " fill-opacity="1" fill-rule="nonzero"/></g></g></g></g><g clip-path="url(#19d6d6980b)"><path fill="#1b0c30" d="M 206.09375 599.957031 L 0.125 599.957031 C 0.125 546.214844 41.296875 502.097656 93.792969 497.410156 C 41.296875 492.71875 0.125 448.605469 0.125 394.859375 L 206.09375 394.859375 C 206.09375 448.605469 164.925781 492.71875 112.425781 497.410156 C 164.925781 502.140625 206.09375 546.253906 206.09375 599.957031 Z M 206.09375 599.957031 " fill-opacity="1" fill-rule="nonzero"/></g><g clip-path="url(#82d85f3a6a)"><path fill="#1b0c30" d="M 206.09375 394.859375 L 0.125 394.859375 C 0.125 341.117188 41.296875 297.003906 93.792969 292.3125 C 41.296875 287.625 0.125 243.507812 0.125 189.765625 L 206.09375 189.765625 C 206.09375 243.507812 164.925781 287.625 112.425781 292.3125 C 164.925781 297.042969 206.09375 341.160156 206.09375 394.859375 Z M 206.09375 394.859375 " fill-opacity="1" fill-rule="nonzero"/></g><g clip-path="url(#94c84adb8e)"><path fill="#ff914d" d="M 206.09375 189.765625 L 0.125 189.765625 C 0.125 136.023438 41.296875 91.90625 93.792969 87.21875 C 41.296875 82.527344 0.125 38.414062 0.125 -15.328125 L 206.09375 -15.328125 C 206.09375 38.414062 164.925781 82.527344 112.425781 87.21875 C 164.925781 91.949219 206.09375 136.066406 206.09375 189.765625 Z M 206.09375 189.765625 " fill-opacity="1" fill-rule="nonzero"/></g><g clip-path="url(#fd34b26961)"><path fill="#1b0c30" d="M 412.3125 599.957031 L 206.347656 599.957031 C 206.347656 546.214844 247.515625 502.097656 300.011719 497.410156 C 247.515625 492.71875 206.347656 448.605469 206.347656 394.859375 L 412.3125 394.859375 C 412.3125 448.605469 371.144531 492.71875 318.648438 497.410156 C 371.144531 502.140625 412.3125 546.253906 412.3125 599.957031 Z M 412.3125 599.957031 " fill-opacity="1" fill-rule="nonzero"/></g><g clip-path="url(#55b945e12d)"><path fill="#1b0c30" d="M 412.3125 394.859375 L 206.347656 394.859375 C 206.347656 341.117188 247.515625 297.003906 300.011719 292.3125 C 247.515625 287.625 206.347656 243.507812 206.347656 189.765625 L 412.3125 189.765625 C 412.3125 243.507812 371.144531 287.625 318.648438 292.3125 C 371.144531 297.042969 412.3125 341.160156 412.3125 394.859375 Z M 412.3125 394.859375 " fill-opacity="1" fill-rule="nonzero"/></g><g clip-path="url(#d29987c657)"><path fill="#1b0c30" d="M 618.535156 599.957031 L 412.566406 599.957031 C 412.566406 546.214844 453.734375 502.097656 506.234375 497.410156 C 453.734375 492.71875 412.566406 448.605469 412.566406 394.859375 L 618.535156 394.859375 C 618.535156 448.605469 577.363281 492.71875 524.867188 497.410156 C 577.363281 502.140625 618.535156 546.253906 618.535156 599.957031 Z M 618.535156 599.957031 " fill-opacity="1" fill-rule="nonzero"/></g><g clip-path="url(#75d19440ac)"><path fill="#1b0c30" d="M 618.535156 394.859375 L 412.566406 394.859375 C 412.566406 341.117188 453.734375 297.003906 506.234375 292.3125 C 453.734375 287.625 412.566406 243.507812 412.566406 189.765625 L 618.535156 189.765625 C 618.535156 243.507812 577.363281 287.625 524.867188 292.3125 C 577.363281 297.042969 618.535156 341.160156 618.535156 394.859375 Z M 618.535156 394.859375 " fill-opacity="1" fill-rule="nonzero"/></g><g clip-path="url(#53c020a2a9)"><path fill="#1b0c30" d="M 824.753906 599.957031 L 618.785156 599.957031 C 618.785156 546.214844 659.953125 502.097656 712.453125 497.410156 C 659.953125 492.71875 618.785156 448.605469 618.785156 394.859375 L 824.753906 394.859375 C 824.753906 448.605469 783.585938 492.71875 731.085938 497.410156 C 783.585938 502.140625 824.753906 546.253906 824.753906 599.957031 Z M 824.753906 599.957031 " fill-opacity="1" fill-rule="nonzero"/></g><g clip-path="url(#a487f68643)"><path fill="#1b0c30" d="M 824.753906 394.859375 L 618.785156 394.859375 C 618.785156 341.117188 659.953125 297.003906 712.453125 292.3125 C 659.953125 287.625 618.785156 243.507812 618.785156 189.765625 L 824.753906 189.765625 C 824.753906 243.507812 783.585938 287.625 731.085938 292.3125 C 783.585938 297.042969 824.753906 341.160156 824.753906 394.859375 Z M 824.753906 394.859375 " fill-opacity="1" fill-rule="nonzero"/></g><g clip-path="url(#87dfabaa63)"><path fill="#ff914d" d="M 618.535156 189.765625 L 412.566406 189.765625 C 412.566406 136.023438 453.734375 91.90625 506.234375 87.21875 C 453.734375 82.527344 412.566406 38.414062 412.566406 -15.328125 L 618.535156 -15.328125 C 618.535156 38.414062 577.363281 82.527344 524.867188 87.21875 C 577.363281 91.949219 618.535156 136.066406 618.535156 189.765625 Z M 618.535156 189.765625 " fill-opacity="1" fill-rule="nonzero"/></g></svg>