<svg xmlns="http://www.w3.org/2000/svg" xmlns:xlink="http://www.w3.org/1999/xlink" width="1100" zoomAndPan="magnify" viewBox="0 0 824.88 599.999999" height="800" preserveAspectRatio="xMidYMid meet" version="1.0"><defs><clipPath id="dc24928841"><path d="M 0 0.0429688 L 824.761719 0.0429688 L 824.761719 599.957031 L 0 599.957031 Z M 0 0.0429688 " clip-rule="nonzero"/></clipPath><clipPath id="2c9209795e"><path d="M 0 0.0429688 L 199.972656 0.0429688 L 199.972656 200.015625 L 0 200.015625 Z M 0 0.0429688 " clip-rule="nonzero"/></clipPath><clipPath id="459b3d1056"><path d="M 0 0.0429688 L 199.972656 0.0429688 L 199.972656 200.015625 L 0 200.015625 Z M 0 0.0429688 " clip-rule="nonzero"/></clipPath><clipPath id="aa96c0fcee"><rect x="0" width="200" y="0" height="201"/></clipPath><clipPath id="67539eb1d7"><path d="M 0 200.015625 L 199.972656 200.015625 L 199.972656 399.984375 L 0 399.984375 Z M 0 200.015625 " clip-rule="nonzero"/></clipPath><clipPath id="275380d5f1"><path d="M 0 0.015625 L 199.972656 0.015625 L 199.972656 199.984375 L 0 199.984375 Z M 0 0.015625 " clip-rule="nonzero"/></clipPath><clipPath id="74cd5f52f4"><rect x="0" width="200" y="0" height="200"/></clipPath><clipPath id="4b2ad78508"><path d="M 0 399.984375 L 199.972656 399.984375 L 199.972656 599.957031 L 0 599.957031 Z M 0 399.984375 " clip-rule="nonzero"/></clipPath><clipPath id="439b479afc"><path d="M 0 0.984375 L 199.972656 0.984375 L 199.972656 200.957031 L 0 200.957031 Z M 0 0.984375 " clip-rule="nonzero"/></clipPath><clipPath id="17818e644e"><rect x="0" width="200" y="0" height="201"/></clipPath><clipPath id="3eced2abd2"><path d="M 199.972656 0.0429688 L 399.941406 0.0429688 L 399.941406 200.015625 L 199.972656 200.015625 Z M 199.972656 0.0429688 " clip-rule="nonzero"/></clipPath><clipPath id="e6ac288eb3"><path d="M 0.972656 0.0429688 L 200.941406 0.0429688 L 200.941406 200.015625 L 0.972656 200.015625 Z M 0.972656 0.0429688 " clip-rule="nonzero"/></clipPath><clipPath id="57bc52ff4d"><rect x="0" width="201" y="0" height="201"/></clipPath><clipPath id="2d6678c35f"><path d="M 399.941406 0.0429688 L 599.914062 0.0429688 L 599.914062 200.015625 L 399.941406 200.015625 Z M 399.941406 0.0429688 " clip-rule="nonzero"/></clipPath><clipPath id="0db5654188"><path d="M 0.941406 0.0429688 L 200.914062 0.0429688 L 200.914062 200.015625 L 0.941406 200.015625 Z M 0.941406 0.0429688 " clip-rule="nonzero"/></clipPath><clipPath id="1107dfdec8"><rect x="0" width="201" y="0" height="201"/></clipPath><clipPath id="25ea59f8d9"><path d="M 599.914062 0.0429688 L 799.882812 0.0429688 L 799.882812 200.015625 L 599.914062 200.015625 Z M 599.914062 0.0429688 " clip-rule="nonzero"/></clipPath><clipPath id="7db2bf4b49"><path d="M 0.914062 0.0429688 L 200.882812 0.0429688 L 200.882812 200.015625 L 0.914062 200.015625 Z M 0.914062 0.0429688 " clip-rule="nonzero"/></clipPath><clipPath id="816e0f60b5"><rect x="0" width="201" y="0" height="201"/></clipPath><clipPath id="9a9ac89416"><path d="M 799.882812 0.0429688 L 824.761719 0.0429688 L 824.761719 200.015625 L 799.882812 200.015625 Z M 799.882812 0.0429688 " clip-rule="nonzero"/></clipPath><clipPath id="df8ea06b02"><path d="M 0.882812 0.0429688 L 25.761719 0.0429688 L 25.761719 200.015625 L 0.882812 200.015625 Z M 0.882812 0.0429688 " clip-rule="nonzero"/></clipPath><clipPath id="f23c55f4f3"><rect x="0" width="26" y="0" height="201"/></clipPath><clipPath id="2d90f87aff"><path d="M 199.972656 200.015625 L 399.941406 200.015625 L 399.941406 399.984375 L 199.972656 399.984375 Z M 199.972656 200.015625 " clip-rule="nonzero"/></clipPath><clipPath id="1e6d1b8e77"><path d="M 0.972656 0.015625 L 200.941406 0.015625 L 200.941406 199.984375 L 0.972656 199.984375 Z M 0.972656 0.015625 " clip-rule="nonzero"/></clipPath><clipPath id="f4f66ef510"><rect x="0" width="201" y="0" height="200"/></clipPath><clipPath id="68ea07b402"><path d="M 399.941406 200.015625 L 599.914062 200.015625 L 599.914062 399.984375 L 399.941406 399.984375 Z M 399.941406 200.015625 " clip-rule="nonzero"/></clipPath><clipPath id="33aba87bec"><path d="M 0.941406 0.015625 L 200.914062 0.015625 L 200.914062 199.984375 L 0.941406 199.984375 Z M 0.941406 0.015625 " clip-rule="nonzero"/></clipPath><clipPath id="0e2631487e"><rect x="0" width="201" y="0" height="200"/></clipPath><clipPath id="0b0603fb92"><path d="M 599.914062 200.015625 L 799.882812 200.015625 L 799.882812 399.984375 L 599.914062 399.984375 Z M 599.914062 200.015625 " clip-rule="nonzero"/></clipPath><clipPath id="8ff11c51ba"><path d="M 0.914062 0.015625 L 200.882812 0.015625 L 200.882812 199.984375 L 0.914062 199.984375 Z M 0.914062 0.015625 " clip-rule="nonzero"/></clipPath><clipPath id="29537650ac"><rect x="0" width="201" y="0" height="200"/></clipPath><clipPath id="7b852231b9"><path d="M 799.882812 200.015625 L 824.761719 200.015625 L 824.761719 399.984375 L 799.882812 399.984375 Z M 799.882812 200.015625 " clip-rule="nonzero"/></clipPath><clipPath id="d8f7eb90a3"><path d="M 0.882812 0.015625 L 25.761719 0.015625 L 25.761719 199.984375 L 0.882812 199.984375 Z M 0.882812 0.015625 " clip-rule="nonzero"/></clipPath><clipPath id="f345de92cf"><rect x="0" width="26" y="0" height="200"/></clipPath><clipPath id="70def00b1b"><path d="M 199.972656 399.984375 L 399.941406 399.984375 L 399.941406 599.957031 L 199.972656 599.957031 Z M 199.972656 399.984375 " clip-rule="nonzero"/></clipPath><clipPath id="bcdee1827b"><path d="M 0.972656 0.984375 L 200.941406 0.984375 L 200.941406 200.957031 L 0.972656 200.957031 Z M 0.972656 0.984375 " clip-rule="nonzero"/></clipPath><clipPath id="7b2e29aaea"><rect x="0" width="201" y="0" height="201"/></clipPath><clipPath id="9b183c957f"><path d="M 399.941406 399.984375 L 599.914062 399.984375 L 599.914062 599.957031 L 399.941406 599.957031 Z M 399.941406 399.984375 " clip-rule="nonzero"/></clipPath><clipPath id="3afbe0c897"><path d="M 0.941406 0.984375 L 200.914062 0.984375 L 200.914062 200.957031 L 0.941406 200.957031 Z M 0.941406 0.984375 " clip-rule="nonzero"/></clipPath><clipPath id="5121335026"><rect x="0" width="201" y="0" height="201"/></clipPath><clipPath id="4d5c57881d"><path d="M 599.914062 399.984375 L 799.882812 399.984375 L 799.882812 599.957031 L 599.914062 599.957031 Z M 599.914062 399.984375 " clip-rule="nonzero"/></clipPath><clipPath id="dc903eb212"><path d="M 0.914062 0.984375 L 200.882812 0.984375 L 200.882812 200.957031 L 0.914062 200.957031 Z M 0.914062 0.984375 " clip-rule="nonzero"/></clipPath><clipPath id="7e10bc4d90"><rect x="0" width="201" y="0" height="201"/></clipPath><clipPath id="9958efd478"><path d="M 799.882812 399.984375 L 824.761719 399.984375 L 824.761719 599.957031 L 799.882812 599.957031 Z M 799.882812 399.984375 " clip-rule="nonzero"/></clipPath><clipPath id="75b1014129"><path d="M 0.882812 0.984375 L 25.761719 0.984375 L 25.761719 200.957031 L 0.882812 200.957031 Z M 0.882812 0.984375 " clip-rule="nonzero"/></clipPath><clipPath id="9d717e88eb"><rect x="0" width="26" y="0" height="201"/></clipPath><clipPath id="d021631d24"><path d="M 417 232.296875 L 585 232.296875 L 585 368 L 417 368 Z M 417 232.296875 " clip-rule="nonzero"/></clipPath><clipPath id="ba8c7e83b5"><path d="M 17 432.269531 L 185 432.269531 L 185 568 L 17 568 Z M 17 432.269531 " clip-rule="nonzero"/></clipPath><clipPath id="1202a414e2"><path d="M 17 32.328125 L 185 32.328125 L 185 168 L 17 168 Z M 17 32.328125 " clip-rule="nonzero"/></clipPath></defs><g clip-path="url(#dc24928841)"><path fill="#ffffff" d="M 0 0.0429688 L 824.878906 0.0429688 L 824.878906 599.957031 L 0 599.957031 Z M 0 0.0429688 " fill-opacity="1" fill-rule="nonzero"/><path fill="#ffffff" d="M 0 0.0429688 L 824.878906 0.0429688 L 824.878906 599.957031 L 0 599.957031 Z M 0 0.0429688 " fill-opacity="1" fill-rule="nonzero"/></g><g clip-path="url(#2c9209795e)"><g transform="matrix(1, 0, 0, 1, 0, -0.000000000000171793)"><g clip-path="url(#aa96c0fcee)"><g clip-path="url(#459b3d1056)"><path fill="#47bbb6" d="M 0 0.0429688 L 199.972656 0.0429688 L 199.972656 200.015625 L 0 200.015625 Z M 0 0.0429688 " fill-opacity="1" fill-rule="nonzero"/></g></g></g></g><g clip-path="url(#67539eb1d7)"><g transform="matrix(1, 0, 0, 1, 0, 200)"><g clip-path="url(#74cd5f52f4)"><g clip-path="url(#275380d5f1)"><path fill="#47bbb6" d="M 0 0.015625 L 199.972656 0.015625 L 199.972656 199.984375 L 0 199.984375 Z M 0 0.015625 " fill-opacity="1" fill-rule="nonzero"/></g></g></g></g><g clip-path="url(#4b2ad78508)"><g transform="matrix(1, 0, 0, 1, 0, 399)"><g clip-path="url(#17818e644e)"><g clip-path="url(#439b479afc)"><path fill="#47bbb6" d="M 0 0.984375 L 199.972656 0.984375 L 199.972656 200.957031 L 0 200.957031 Z M 0 0.984375 " fill-opacity="1" fill-rule="nonzero"/></g></g></g></g><g clip-path="url(#3eced2abd2)"><g transform="matrix(1, 0, 0, 1, 199, -0.000000000000171793)"><g clip-path="url(#57bc52ff4d)"><g clip-path="url(#e6ac288eb3)"><path fill="#117274" d="M 0.972656 0.0429688 L 200.941406 0.0429688 L 200.941406 200.015625 L 0.972656 200.015625 Z M 0.972656 0.0429688 " fill-opacity="1" fill-rule="nonzero"/></g></g></g></g><g clip-path="url(#2d6678c35f)"><g transform="matrix(1, 0, 0, 1, 399, -0.000000000000171793)"><g clip-path="url(#1107dfdec8)"><g clip-path="url(#0db5654188)"><path fill="#47bbb6" d="M 0.941406 0.0429688 L 200.914062 0.0429688 L 200.914062 200.015625 L 0.941406 200.015625 Z M 0.941406 0.0429688 " fill-opacity="1" fill-rule="nonzero"/></g></g></g></g><g clip-path="url(#25ea59f8d9)"><g transform="matrix(1, 0, 0, 1, 599, -0.000000000000171793)"><g clip-path="url(#816e0f60b5)"><g clip-path="url(#7db2bf4b49)"><path fill="#117274" d="M 0.914062 0.0429688 L 200.882812 0.0429688 L 200.882812 200.015625 L 0.914062 200.015625 Z M 0.914062 0.0429688 " fill-opacity="1" fill-rule="nonzero"/></g></g></g></g><g clip-path="url(#9a9ac89416)"><g transform="matrix(1, 0, 0, 1, 799, -0.000000000000171793)"><g clip-path="url(#f23c55f4f3)"><g clip-path="url(#df8ea06b02)"><path fill="#117274" d="M 0.882812 0.0429688 L 200.855469 0.0429688 L 200.855469 200.015625 L 0.882812 200.015625 Z M 0.882812 0.0429688 " fill-opacity="1" fill-rule="nonzero"/></g></g></g></g><g clip-path="url(#2d90f87aff)"><g transform="matrix(1, 0, 0, 1, 199, 200)"><g clip-path="url(#f4f66ef510)"><g clip-path="url(#1e6d1b8e77)"><path fill="#137375" d="M 0.972656 0.015625 L 200.941406 0.015625 L 200.941406 199.984375 L 0.972656 199.984375 Z M 0.972656 0.015625 " fill-opacity="1" fill-rule="nonzero"/></g></g></g></g><g clip-path="url(#68ea07b402)"><g transform="matrix(1, 0, 0, 1, 399, 200)"><g clip-path="url(#0e2631487e)"><g clip-path="url(#33aba87bec)"><path fill="#47bbb6" d="M 0.941406 0.015625 L 200.914062 0.015625 L 200.914062 199.984375 L 0.941406 199.984375 Z M 0.941406 0.015625 " fill-opacity="1" fill-rule="nonzero"/></g></g></g></g><g clip-path="url(#0b0603fb92)"><g transform="matrix(1, 0, 0, 1, 599, 200)"><g clip-path="url(#29537650ac)"><g clip-path="url(#8ff11c51ba)"><path fill="#117274" d="M 0.914062 0.015625 L 200.882812 0.015625 L 200.882812 199.984375 L 0.914062 199.984375 Z M 0.914062 0.015625 " fill-opacity="1" fill-rule="nonzero"/></g></g></g></g><g clip-path="url(#7b852231b9)"><g transform="matrix(1, 0, 0, 1, 799, 200)"><g clip-path="url(#f345de92cf)"><g clip-path="url(#d8f7eb90a3)"><path fill="#117274" d="M 0.882812 0.015625 L 200.855469 0.015625 L 200.855469 199.984375 L 0.882812 199.984375 Z M 0.882812 0.015625 " fill-opacity="1" fill-rule="nonzero"/></g></g></g></g><g clip-path="url(#70def00b1b)"><g transform="matrix(1, 0, 0, 1, 199, 399)"><g clip-path="url(#7b2e29aaea)"><g clip-path="url(#bcdee1827b)"><path fill="#117274" d="M 0.972656 0.984375 L 200.941406 0.984375 L 200.941406 200.957031 L 0.972656 200.957031 Z M 0.972656 0.984375 " fill-opacity="1" fill-rule="nonzero"/></g></g></g></g><g clip-path="url(#9b183c957f)"><g transform="matrix(1, 0, 0, 1, 399, 399)"><g clip-path="url(#5121335026)"><g clip-path="url(#3afbe0c897)"><path fill="#47bbb6" d="M 0.941406 0.984375 L 200.914062 0.984375 L 200.914062 200.957031 L 0.941406 200.957031 Z M 0.941406 0.984375 " fill-opacity="1" fill-rule="nonzero"/></g></g></g></g><g clip-path="url(#4d5c57881d)"><g transform="matrix(1, 0, 0, 1, 599, 399)"><g clip-path="url(#7e10bc4d90)"><g clip-path="url(#dc903eb212)"><path fill="#117274" d="M 0.914062 0.984375 L 200.882812 0.984375 L 200.882812 200.957031 L 0.914062 200.957031 Z M 0.914062 0.984375 " fill-opacity="1" fill-rule="nonzero"/></g></g></g></g><g clip-path="url(#9958efd478)"><g transform="matrix(1, 0, 0, 1, 799, 399)"><g clip-path="url(#9d717e88eb)"><g clip-path="url(#75b1014129)"><path fill="#117274" d="M 0.882812 0.984375 L 200.855469 0.984375 L 200.855469 200.957031 L 0.882812 200.957031 Z M 0.882812 0.984375 " fill-opacity="1" fill-rule="nonzero"/></g></g></g></g><g clip-path="url(#d021631d24)"><path fill="#117274" d="M 472.660156 367.71875 C 470.460938 367.71875 468.421875 366.839844 466.902344 365.238281 L 424.773438 320.863281 C 420.132812 315.980469 415.304688 306.324219 417.964844 301.6875 C 419.4375 298.941406 422.121094 295.71875 426.679688 295.71875 C 430.320312 295.71875 434.515625 297.742188 438.800781 301.566406 C 447.476562 309.289062 455.164062 317.75 460.257812 323.351562 C 466.40625 330.125 467.621094 331.394531 469.28125 331.394531 C 470.570312 331.367188 470.570312 331.367188 475.648438 325.019531 C 490.046875 306.988281 533.859375 252.125 576.617188 232.75 C 577.296875 232.445312 578.023438 232.289062 578.769531 232.289062 C 580.355469 232.289062 581.878906 232.988281 582.957031 234.195312 C 584.105469 235.484375 584.59375 236.996094 584.4375 238.5625 C 584.289062 240.121094 583.507812 241.507812 582.261719 242.457031 C 580.558594 243.742188 578.585938 245.261719 576.375 246.992188 C 537.125 279.574219 495.410156 339.777344 479.296875 364.152344 C 477.820312 366.382812 475.339844 367.71875 472.660156 367.71875 " fill-opacity="1" fill-rule="nonzero"/></g><g clip-path="url(#ba8c7e83b5)"><path fill="#117274" d="M 72.71875 567.691406 C 70.519531 567.691406 68.480469 566.808594 66.960938 565.207031 L 24.832031 520.835938 C 20.191406 515.953125 15.363281 506.296875 18.023438 501.65625 C 19.492188 498.910156 22.179688 495.691406 26.734375 495.691406 C 30.378906 495.691406 34.574219 497.710938 38.859375 501.535156 C 47.535156 509.257812 55.222656 517.722656 60.316406 523.324219 C 66.464844 530.097656 67.679688 531.363281 69.339844 531.363281 C 70.628906 531.339844 70.628906 531.339844 75.707031 524.992188 C 90.105469 506.960938 133.914062 452.097656 176.675781 432.722656 C 177.355469 432.417969 178.082031 432.261719 178.824219 432.261719 C 180.414062 432.261719 181.9375 432.960938 183.015625 434.167969 C 184.164062 435.457031 184.652344 436.96875 184.496094 438.535156 C 184.347656 440.09375 183.566406 441.476562 182.316406 442.425781 C 180.617188 443.714844 178.644531 445.234375 176.433594 446.960938 C 137.183594 479.546875 95.46875 539.746094 79.355469 564.125 C 77.878906 566.355469 75.394531 567.691406 72.71875 567.691406 " fill-opacity="1" fill-rule="nonzero"/></g><g clip-path="url(#1202a414e2)"><path fill="#117274" d="M 72.71875 167.75 C 70.519531 167.75 68.480469 166.867188 66.960938 165.265625 L 24.832031 120.894531 C 20.191406 116.011719 15.363281 106.355469 18.023438 101.714844 C 19.492188 98.96875 22.179688 95.75 26.734375 95.75 C 30.378906 95.75 34.574219 97.769531 38.859375 101.59375 C 47.535156 109.316406 55.222656 117.78125 60.316406 123.382812 C 66.464844 130.15625 67.679688 131.421875 69.339844 131.421875 C 70.628906 131.394531 70.628906 131.394531 75.707031 125.050781 C 90.105469 107.019531 133.914062 52.152344 176.675781 32.78125 C 177.355469 32.476562 178.082031 32.320312 178.824219 32.320312 C 180.414062 32.320312 181.9375 33.019531 183.015625 34.226562 C 184.164062 35.511719 184.652344 37.027344 184.496094 38.59375 C 184.347656 40.152344 183.566406 41.535156 182.316406 42.484375 C 180.617188 43.773438 178.644531 45.292969 176.433594 47.019531 C 137.183594 79.601562 95.46875 139.804688 79.355469 164.183594 C 77.878906 166.414062 75.394531 167.75 72.71875 167.75 " fill-opacity="1" fill-rule="nonzero"/></g></svg>
