<svg xmlns="http://www.w3.org/2000/svg" xmlns:xlink="http://www.w3.org/1999/xlink" width="1100" zoomAndPan="magnify" viewBox="0 0 824.88 599.999999" height="800" preserveAspectRatio="xMidYMid meet" version="1.0"><defs><clipPath id="7f7225cdc2"><path d="M 0 0.0429688 L 824.761719 0.0429688 L 824.761719 599.957031 L 0 599.957031 Z M 0 0.0429688 " clip-rule="nonzero"/></clipPath><clipPath id="658db4d1f8"><path d="M 0 0.0429688 L 824.761719 0.0429688 L 824.761719 599.957031 L 0 599.957031 Z M 0 0.0429688 " clip-rule="nonzero"/></clipPath><clipPath id="cc96b7b24d"><rect x="0" width="825" y="0" height="600"/></clipPath><clipPath id="2aa8dee55a"><path d="M 94.972656 59.882812 L 574.902344 59.882812 L 574.902344 539.8125 L 94.972656 539.8125 Z M 94.972656 59.882812 " clip-rule="nonzero"/></clipPath><clipPath id="6aa944afd0"><path d="M 178.117188 340.425781 L 288.660156 340.425781 L 288.660156 501.492188 L 178.117188 501.492188 Z M 178.117188 340.425781 " clip-rule="nonzero"/></clipPath><clipPath id="c4d1890de9"><path d="M 233.390625 340.757812 L 178.117188 421.125 L 218.300781 421.125 L 218.300781 501.492188 L 248.476562 501.492188 L 248.476562 421.125 L 288.660156 421.125 Z M 233.390625 340.757812 " clip-rule="nonzero"/></clipPath><clipPath id="c150045a6b"><path d="M 0.117188 0.554688 L 110.660156 0.554688 L 110.660156 161.492188 L 0.117188 161.492188 Z M 0.117188 0.554688 " clip-rule="nonzero"/></clipPath><clipPath id="901ed1a074"><path d="M 55.390625 0.757812 L 0.117188 81.125 L 40.300781 81.125 L 40.300781 161.492188 L 70.476562 161.492188 L 70.476562 81.125 L 110.660156 81.125 Z M 55.390625 0.757812 " clip-rule="nonzero"/></clipPath><clipPath id="832595c89f"><rect x="0" width="111" y="0" height="162"/></clipPath><clipPath id="3315242deb"><path d="M 115.6875 80.597656 L 554.375 80.597656 L 554.375 519.285156 L 115.6875 519.285156 Z M 115.6875 80.597656 " clip-rule="nonzero"/></clipPath><clipPath id="04f1c645ca"><path d="M 253.957031 282.507812 L 372.789062 282.507812 L 372.789062 519.242188 L 253.957031 519.242188 Z M 253.957031 282.507812 " clip-rule="nonzero"/></clipPath><clipPath id="0ae087e8e7"><path d="M 313.375 282.699219 L 253.957031 369.089844 L 297.152344 369.089844 L 297.152344 519.242188 L 329.59375 519.242188 L 329.59375 369.089844 L 372.789062 369.089844 Z M 313.375 282.699219 " clip-rule="nonzero"/></clipPath><clipPath id="87d343f084"><path d="M 0.957031 0.507812 L 119.789062 0.507812 L 119.789062 237.242188 L 0.957031 237.242188 Z M 0.957031 0.507812 " clip-rule="nonzero"/></clipPath><clipPath id="4e10c8fa45"><path d="M 60.375 0.699219 L 0.957031 87.089844 L 44.152344 87.089844 L 44.152344 237.242188 L 76.59375 237.242188 L 76.59375 87.089844 L 119.789062 87.089844 Z M 60.375 0.699219 " clip-rule="nonzero"/></clipPath><clipPath id="b24a142c21"><rect x="0" width="120" y="0" height="238"/></clipPath><clipPath id="4c1c1780a0"><path d="M 335.015625 236 L 441.851562 236 L 441.851562 519.238281 L 335.015625 519.238281 Z M 335.015625 236 " clip-rule="nonzero"/></clipPath><clipPath id="a0647d6b19"><path d="M 388.433594 236.019531 L 335.015625 313.691406 L 373.851562 313.691406 L 373.851562 519.238281 L 403.015625 519.238281 L 403.015625 313.691406 L 441.851562 313.691406 Z M 388.433594 236.019531 " clip-rule="nonzero"/></clipPath><clipPath id="82e378fa95"><path d="M 0.015625 0 L 106.851562 0 L 106.851562 283.238281 L 0.015625 283.238281 Z M 0.015625 0 " clip-rule="nonzero"/></clipPath><clipPath id="fbf7368be5"><path d="M 53.433594 0.0195312 L 0.015625 77.691406 L 38.851562 77.691406 L 38.851562 283.238281 L 68.015625 283.238281 L 68.015625 77.691406 L 106.851562 77.691406 Z M 53.433594 0.0195312 " clip-rule="nonzero"/></clipPath><clipPath id="384b6b8ddf"><rect x="0" width="107" y="0" height="284"/></clipPath><clipPath id="7345ac8a9d"><path d="M 412.441406 199 L 519.277344 199 L 519.277344 482.367188 L 412.441406 482.367188 Z M 412.441406 199 " clip-rule="nonzero"/></clipPath><clipPath id="7cad7579a3"><path d="M 465.859375 199.144531 L 412.441406 276.816406 L 451.277344 276.816406 L 451.277344 482.367188 L 480.441406 482.367188 L 480.441406 276.816406 L 519.277344 276.816406 Z M 465.859375 199.144531 " clip-rule="nonzero"/></clipPath><clipPath id="f5d967bfac"><path d="M 0.441406 0 L 107.277344 0 L 107.277344 283.367188 L 0.441406 283.367188 Z M 0.441406 0 " clip-rule="nonzero"/></clipPath><clipPath id="6241bb3660"><path d="M 53.859375 0.144531 L 0.441406 77.816406 L 39.277344 77.816406 L 39.277344 283.367188 L 68.441406 283.367188 L 68.441406 77.816406 L 107.277344 77.816406 Z M 53.859375 0.144531 " clip-rule="nonzero"/></clipPath><clipPath id="91f5f2049d"><rect x="0" width="108" y="0" height="284"/></clipPath></defs><g clip-path="url(#7f7225cdc2)"><path fill="#ffffff" d="M 0 0.0429688 L 824.878906 0.0429688 L 824.878906 599.957031 L 0 599.957031 Z M 0 0.0429688 " fill-opacity="1" fill-rule="nonzero"/><path fill="#ffffff" d="M 0 0.0429688 L 824.878906 0.0429688 L 824.878906 599.957031 L 0 599.957031 Z M 0 0.0429688 " fill-opacity="1" fill-rule="nonzero"/><g transform="matrix(1, 0, 0, 1, 0, -0.000000000000171793)"><g clip-path="url(#cc96b7b24d)"><g clip-path="url(#658db4d1f8)"><path fill="#ff90f6" d="M 0 0.0429688 L 824.878906 0.0429688 L 824.878906 599.957031 L 0 599.957031 Z M 0 0.0429688 " fill-opacity="1" fill-rule="nonzero"/></g></g></g></g><g clip-path="url(#2aa8dee55a)"><path fill="#a30d8a" d="M 564.671875 299.949219 L 554.257812 299.949219 C 554.25 360.515625 529.738281 415.253906 490.050781 454.960938 C 450.34375 494.648438 395.605469 519.167969 335.039062 519.171875 C 274.472656 519.167969 219.734375 494.652344 180.03125 454.964844 C 140.34375 415.253906 115.824219 360.523438 115.816406 299.949219 C 115.824219 239.382812 140.335938 184.644531 180.023438 144.9375 C 219.734375 105.253906 274.472656 80.734375 335.039062 80.726562 C 395.605469 80.734375 450.34375 105.246094 490.050781 144.933594 C 529.738281 184.644531 554.257812 239.382812 554.261719 299.949219 L 575.085938 299.949219 C 575.082031 167.371094 467.613281 59.90625 335.039062 59.902344 C 202.460938 59.90625 95 167.371094 94.992188 299.949219 C 95 432.527344 202.460938 539.992188 335.039062 539.996094 C 467.621094 539.992188 575.082031 432.527344 575.085938 299.949219 Z M 564.671875 299.949219 " fill-opacity="1" fill-rule="nonzero"/></g><g clip-path="url(#6aa944afd0)"><g clip-path="url(#c4d1890de9)"><g transform="matrix(1, 0, 0, 1, 178, 340)"><g clip-path="url(#832595c89f)"><g clip-path="url(#c150045a6b)"><g clip-path="url(#901ed1a074)"><path fill="#a30d8a" d="M 0.117188 161.492188 L 0.117188 0.859375 L 110.660156 0.859375 L 110.660156 161.492188 Z M 0.117188 161.492188 " fill-opacity="1" fill-rule="nonzero"/></g></g></g></g></g></g><g clip-path="url(#3315242deb)"><path fill="#a30d8a" d="M 544.851562 299.945312 L 535.335938 299.945312 C 535.328125 355.285156 512.929688 405.300781 476.667969 441.578125 C 440.390625 477.839844 390.375 500.246094 335.035156 500.25 C 279.699219 500.246094 229.683594 477.847656 193.402344 441.585938 C 157.140625 405.300781 134.738281 355.289062 134.734375 299.945312 C 134.738281 244.609375 157.136719 194.59375 193.398438 158.3125 C 229.683594 122.050781 279.699219 99.648438 335.035156 99.644531 C 390.375 99.648438 440.390625 122.046875 476.667969 158.308594 C 512.929688 194.59375 535.335938 244.609375 535.339844 299.945312 L 554.367188 299.945312 C 554.363281 178.808594 456.167969 80.621094 335.035156 80.617188 C 213.898438 80.621094 115.710938 178.808594 115.707031 299.945312 C 115.710938 421.082031 213.898438 519.273438 335.035156 519.277344 C 456.175781 519.273438 554.363281 421.082031 554.367188 299.945312 Z M 544.851562 299.945312 " fill-opacity="1" fill-rule="nonzero"/></g><g clip-path="url(#04f1c645ca)"><g clip-path="url(#0ae087e8e7)"><g transform="matrix(1, 0, 0, 1, 253, 282)"><g clip-path="url(#b24a142c21)"><g clip-path="url(#87d343f084)"><g clip-path="url(#4e10c8fa45)"><path fill="#a40c8a" d="M 0.957031 237.242188 L 0.957031 0.507812 L 119.789062 0.507812 L 119.789062 237.242188 Z M 0.957031 237.242188 " fill-opacity="1" fill-rule="nonzero"/></g></g></g></g></g></g><g clip-path="url(#4c1c1780a0)"><g clip-path="url(#a0647d6b19)"><g transform="matrix(1, 0, 0, 1, 335, 236)"><g clip-path="url(#384b6b8ddf)"><g clip-path="url(#82e378fa95)"><g clip-path="url(#fbf7368be5)"><path fill="#a40c8a" d="M 0.015625 283.238281 L 0.015625 -0.125 L 106.851562 -0.125 L 106.851562 283.238281 Z M 0.015625 283.238281 " fill-opacity="1" fill-rule="nonzero"/></g></g></g></g></g></g><g clip-path="url(#7345ac8a9d)"><g clip-path="url(#7cad7579a3)"><g transform="matrix(1, 0, 0, 1, 412, 199)"><g clip-path="url(#91f5f2049d)"><g clip-path="url(#f5d967bfac)"><g clip-path="url(#6241bb3660)"><path fill="#a40c8a" d="M 0.441406 283.367188 L 0.441406 0 L 107.277344 0 L 107.277344 283.367188 Z M 0.441406 283.367188 " fill-opacity="1" fill-rule="nonzero"/></g></g></g></g></g></g></svg>